<svg width="196" height="40" viewBox="0 0 196 40" fill="none" xmlns="http://www.w3.org/2000/svg">
<path d="M124.129 31.9136C122.473 31.5952 120.945 30.3537 120.722 28.6345C120.754 25.5146 120.659 22.3947 120.754 19.2429C123.842 19.1474 126.93 19.2429 130.018 19.211C130.082 16.6005 130.082 13.9899 130.018 11.3793C126.93 11.2838 123.842 11.3794 120.754 11.3157C120.595 8.54596 120.913 5.77627 120.595 3.00653C120.468 2.11512 119.385 1.79674 118.653 2.11511C116.297 2.84733 113.973 3.73876 111.617 4.43915C111.522 6.73135 111.649 9.0235 111.554 11.3157C109.229 11.4112 106.937 11.3157 104.613 11.3793V11.6659C104.55 14.1491 104.581 16.6323 104.581 19.1155C106.905 19.1474 109.229 19.1155 111.554 19.1155C111.649 22.5857 111.554 26.0558 111.585 29.5259C111.681 32.2956 112.7 35.1928 114.833 37.0711C116.552 38.7266 118.876 39.427 121.168 39.8408L121.327 40H125.402L125.561 39.8408C127.408 39.4906 129.254 38.8857 130.751 37.7396C130.05 35.4792 129.223 33.2826 128.395 31.054C127.058 31.5953 125.625 32.3275 124.129 31.9136ZM157.334 13.6716C151.126 8.92804 141.288 10.4243 136.64 16.6642C132.279 22.2673 132.916 31.1814 138.264 35.925C141.575 39.0131 146.319 40.2229 150.744 39.7772C154.978 39.3315 159.085 36.9437 161.281 33.2189C158.384 32.6459 155.551 31.9136 152.654 31.4043C151.922 31.659 151.285 32.2002 150.521 32.423C148.388 33.0916 145.809 32.5503 144.313 30.7993C143.517 29.9079 143.135 28.6982 142.944 27.5203C148.101 27.4566 153.227 27.5203 158.384 27.5203C159.499 27.4885 160.645 27.5839 161.759 27.3929C162.3 27.2974 162.682 26.7881 162.746 26.2468C163.001 21.5351 161.218 16.5368 157.334 13.6716ZM187.483 27.8068C187.069 28.9529 186.527 30.1308 185.572 30.8949C183.599 32.5822 180.415 32.423 178.505 30.7039C176.913 29.3349 176.308 27.1064 176.372 25.0371C176.34 22.9996 177.008 20.8347 178.6 19.4657C180.542 17.7784 183.726 17.7148 185.668 19.4021C186.591 20.198 187.069 21.344 187.483 22.4583C189.552 22.0444 191.589 21.5669 193.659 21.1212C194.264 20.962 195.028 20.8665 195.282 20.1661C195.537 19.4657 195.123 18.7972 194.868 18.1604C193.277 14.7858 190.157 12.2071 186.591 11.2202C181.943 9.91489 176.658 10.7427 172.838 13.6716C167.649 17.5238 165.866 25.037 168.413 30.8949C169.973 34.6197 173.22 37.5805 177.072 38.8221C181.02 40.0637 185.477 39.9363 189.17 37.9943C192.417 36.3388 194.932 33.1871 195.664 29.5896C192.958 29.0166 190.22 28.3162 187.483 27.8068ZM54.8535 30.7039C53.2617 32.2002 50.7148 32.5185 48.7728 31.5316C47.0218 30.672 45.8758 28.8892 45.5574 27.0427C45.1117 24.5914 45.4619 21.7898 47.2129 19.8796C49.0275 17.874 52.4976 17.5555 54.567 19.3384C55.5857 20.1343 56.0951 21.3122 56.5727 22.4583C58.7375 21.9808 60.9024 21.5032 63.0672 21.0257C63.5766 20.9302 64.1815 20.6755 64.3407 20.1343C64.5635 19.3065 64.0541 18.5425 63.7358 17.8103C62.0803 14.4675 58.833 11.9843 55.2356 11.0929C51.0014 10.0423 46.3215 10.7108 42.6921 13.0985C39.3812 15.2634 37.089 18.8927 36.4841 22.8085C35.8792 26.6289 36.8025 30.7038 39.1265 33.8238C43.6472 40 53.198 41.4326 59.5016 37.2303C62.1121 35.4793 64.0223 32.6777 64.7864 29.5896C62.0485 29.0166 59.3106 28.348 56.5408 27.8068C56.127 28.8255 55.6812 29.908 54.8535 30.7039ZM98.2142 11.5067C96.3359 11.5067 94.4257 11.4749 92.5474 11.5704C92.229 12.2708 91.9743 13.003 91.4968 13.6079C90.6691 13.2258 90.0005 12.5255 89.1728 12.1116C84.4292 9.53287 78.1257 10.3924 74.1462 14.0218C67.9381 19.5294 67.779 30.3536 73.8597 35.9886C78.5077 40.5412 86.6577 40.9232 91.4968 36.498C91.847 37.2303 92.229 37.9625 92.5474 38.6947C94.9033 38.7584 97.2273 38.7266 99.5513 38.7266C99.5832 30.1308 99.5832 21.5351 99.5513 12.9394C99.6468 12.1435 99.0101 11.4431 98.2142 11.5067ZM23.7815 17.3328C20.5024 16.0911 16.9368 15.7409 13.6258 14.4675C12.416 14.0218 10.9834 13.1304 11.1108 11.6659C11.0789 10.3606 12.2887 9.66022 13.2756 9.08717C12.225 7.14517 11.1108 5.26683 9.99649 3.42034C9.64629 2.65627 8.6594 2.56076 7.99084 2.9428C6.30353 3.80237 4.80722 5.10771 3.75663 6.66768C0.955059 10.8064 1.94198 17.1736 6.11251 20.0388C9.5508 22.4902 13.8168 23.1587 17.7963 24.2093C19.1653 24.5595 20.5342 24.9734 21.7122 25.7693C23.113 26.7244 23.3358 28.9529 22.2215 30.2263C21.2665 31.4043 19.7702 31.9455 18.3057 32.1365C15.7907 32.423 13.1483 31.8818 11.1108 30.3537C9.35977 29.0802 8.37287 27.0745 7.70431 25.0688C5.12559 25.9603 2.54688 26.8517 0 27.8704C1.17793 31.7544 3.62929 35.3838 7.2586 37.3576C11.652 39.7771 16.9686 40.1274 21.8077 38.9813C25.0231 38.1854 28.1749 36.4344 30.0214 33.5691C32.0589 30.5129 32.2817 26.3742 30.7855 23.0314C29.512 20.1343 26.6786 18.3833 23.7815 17.3328ZM88.9181 30.0672C87.2308 32.1683 84.0153 32.6777 81.6913 31.3724C77.0114 28.6663 77.4571 20.198 82.7101 18.447C84.9068 17.7466 87.5492 18.4152 88.9818 20.2617C91.1148 23.0314 91.1467 27.3293 88.9181 30.0672ZM143.103 22.0763C143.294 19.6886 145.204 17.6829 147.56 17.3328C150.521 16.7279 153.832 18.9564 153.927 22.0763C150.33 22.1081 146.701 22.1081 143.103 22.0763ZM31.1675 8.25948C29.3846 9.21456 27.6337 10.2651 25.9464 11.3476C24.6729 12.0798 25.4688 14.3401 26.9015 14.1173C28.0794 13.9263 29.0026 13.0986 30.0214 12.5573C31.0401 11.8888 32.2499 11.443 33.0776 10.5198C33.8735 9.31002 32.4727 7.62276 31.1675 8.25948ZM23.4632 9.85128C24.1317 9.31007 24.4501 8.48233 24.8958 7.78194C25.5962 6.5085 26.4557 5.33051 26.997 3.9934C27.4427 2.7518 25.9145 1.60574 24.8003 2.21063C23.7497 3.00653 23.3358 4.37546 22.6036 5.45789C22.0942 6.44481 21.2983 7.33622 21.1073 8.48232C21.0118 9.69209 22.5081 10.3607 23.4632 9.85128ZM15.5041 7.49537C15.6315 8.60963 17.0959 9.08717 17.9555 8.45045C18.6877 7.97291 18.5286 7.01786 18.5604 6.25379C18.4967 4.59832 18.6241 2.91099 18.4967 1.22368C18.4012 0.173091 17.0323 -0.304434 16.1727 0.204943C15.345 0.618811 15.4405 1.63753 15.4405 2.4016C15.4723 4.12075 15.3768 5.80806 15.5041 7.49537Z" fill="white"/>
</svg>
