<?xml version="1.0" encoding="UTF-8" standalone="no"?>
<!DOCTYPE svg PUBLIC "-//W3C//DTD SVG 1.1//EN" "http://www.w3.org/Graphics/SVG/1.1/DTD/svg11.dtd">
<svg width="100%" height="100%" viewBox="0 0 180 180" version="1.1" xmlns="http://www.w3.org/2000/svg" xmlns:xlink="http://www.w3.org/1999/xlink" xml:space="preserve" xmlns:serif="http://www.serif.com/" style="fill-rule:evenodd;clip-rule:evenodd;stroke-linejoin:round;stroke-miterlimit:2;">
    <g id="scatec">
        <g transform="matrix(1.35676,0,0,1.35676,-39.6506,-25.7074)">
            <circle cx="95.559" cy="85.282" r="66.335" style="fill:rgb(76,32,158);"/>
        </g>
        <g transform="matrix(2.90326,0,0,2.90326,41.6463,32.5)">
            <path d="M23.782,17.333C20.502,16.091 16.937,15.741 13.626,14.467C12.416,14.022 10.983,13.13 11.111,11.666C11.079,10.361 12.289,9.66 13.276,9.087C12.225,7.145 11.111,5.267 9.996,3.42C9.646,2.656 8.659,2.561 7.991,2.943C6.304,3.802 4.807,5.108 3.757,6.668C0.955,10.806 1.942,17.174 6.113,20.039C9.551,22.49 13.817,23.159 17.796,24.209C19.165,24.56 20.534,24.973 21.712,25.769C23.113,26.724 23.336,28.953 22.222,30.226C21.267,31.404 19.77,31.946 18.306,32.136C15.791,32.423 13.148,31.882 11.111,30.354C9.36,29.08 8.373,27.075 7.704,25.069C5.126,25.96 2.547,26.852 0,27.87C1.178,31.754 3.629,35.384 7.259,37.358C11.652,39.777 16.969,40.127 21.808,38.981C25.023,38.185 28.175,36.434 30.021,33.569C32.059,30.513 32.282,26.374 30.786,23.031C29.512,20.134 26.679,18.383 23.782,17.333ZM31.168,8.259C29.385,9.215 27.634,10.265 25.946,11.348C24.673,12.08 25.469,14.34 26.901,14.117C28.079,13.926 29.003,13.099 30.021,12.557C31.04,11.889 32.25,11.443 33.078,10.52C33.874,9.31 32.473,7.623 31.168,8.259ZM23.463,9.851C24.132,9.31 24.45,8.482 24.896,7.782C25.596,6.509 26.456,5.331 26.997,3.993C27.443,2.752 25.915,1.606 24.8,2.211C23.75,3.007 23.336,4.375 22.604,5.458C22.094,6.445 21.298,7.336 21.107,8.482C21.012,9.692 22.508,10.361 23.463,9.851ZM15.504,7.495C15.632,8.61 17.096,9.087 17.956,8.45C18.688,7.973 18.529,7.018 18.56,6.254C18.497,4.598 18.624,2.911 18.497,1.224C18.401,0.173 17.032,-0.304 16.173,0.205C15.345,0.619 15.441,1.638 15.441,2.402C15.472,4.121 15.377,5.808 15.504,7.495Z" style="fill:white;fill-rule:nonzero;"/>
        </g>
    </g>
</svg>
