<?xml version="1.0" encoding="UTF-8" standalone="no"?>
<!DOCTYPE svg PUBLIC "-//W3C//DTD SVG 1.1//EN" "http://www.w3.org/Graphics/SVG/1.1/DTD/svg11.dtd">
<svg width="100%" height="100%" viewBox="0 0 200 200" version="1.1" xmlns="http://www.w3.org/2000/svg" xmlns:xlink="http://www.w3.org/1999/xlink" xml:space="preserve" xmlns:serif="http://www.serif.com/" style="fill-rule:evenodd;clip-rule:evenodd;stroke-linejoin:round;stroke-miterlimit:2;">
    <g transform="matrix(1.33333,0,0,1.33333,-486.941,-75.5119)">
        <path d="M387.625,195.864C373.79,182.255 365.206,163.324 365.206,142.404C365.206,101.01 398.812,67.404 440.206,67.404C481.599,67.404 515.206,101.01 515.206,142.404C515.206,163.254 506.679,182.128 492.926,195.727L478.701,181.671C488.883,171.689 495.206,157.779 495.206,142.404C495.206,112.048 470.561,87.404 440.206,87.404C409.85,87.404 385.206,112.048 385.206,142.404C385.206,157.848 391.586,171.815 401.851,181.808L387.625,195.864Z" style="fill:#E8E6E2"/>
    </g>
    <g transform="matrix(1.33333,0,0,1.33333,-20.4355,39.7495)">
        <path d="M90.327,-2.919C90.4,-2.919 90.407,-2.028 90.548,-0.402C91.517,10.776 95.33,54.854 95.327,55.295C95.325,55.601 95.279,55.987 95.279,55.987C94.942,58.42 92.851,60.295 90.327,60.295C87.802,60.295 85.712,58.42 85.374,55.987C85.374,55.987 85.327,55.454 85.327,55.295C85.327,54.853 89.146,10.71 90.109,-0.402C90.247,-2.004 90.253,-2.919 90.327,-2.919Z" style="fill:rgb(15,92,175);"/>
    </g>
</svg>
