<?xml version="1.0" encoding="UTF-8" standalone="no"?>
<!DOCTYPE svg PUBLIC "-//W3C//DTD SVG 1.1//EN" "http://www.w3.org/Graphics/SVG/1.1/DTD/svg11.dtd">
<svg width="100%" height="100%" viewBox="0 0 100 133" version="1.1" xmlns="http://www.w3.org/2000/svg" xmlns:xlink="http://www.w3.org/1999/xlink" xml:space="preserve" xmlns:serif="http://www.serif.com/" style="fill-rule:evenodd;clip-rule:evenodd;stroke-linejoin:round;stroke-miterlimit:2;">
    <path d="M100,0L0,0L0,100L100,100L100,0ZM35.768,66.513C34.907,66.513 34.164,65.629 34.538,64.731L40.02,51.65C40.394,50.753 41.198,49.889 42.501,49.889L58.01,49.903C59.377,49.903 59.718,51.183 59.404,51.95L53.93,65.009C50.949,72.468 48.899,75.41 45.129,78.415C41.377,81.402 34.962,83.296 28.971,83.213C27.774,83.213 27.244,82.113 27.638,81.179C27.638,81.179 28,80.359 29.208,77.422C29.629,76.414 30.507,76.44 30.81,76.44C34.64,76.25 37.244,75.121 39.344,73.645C41.481,72.143 42.579,70.027 43.325,68.495C43.624,67.882 43.302,66.52 41.899,66.519L35.768,66.513ZM49.774,33.676C48.762,33.676 48.029,32.533 48.403,31.634L53.885,18.555C54.26,17.657 55.062,17.046 56.366,17.046L71.875,17.046C73.16,17.046 73.481,18.349 73.27,18.854L67.795,31.913C67.407,32.814 66.807,33.638 65.226,33.638L49.774,33.676Z" style="fill:white;"/>
    <g transform="matrix(0.439468,0,0,0.439468,96.5555,116.52)">
        <path d="M0,25.042L0,10.612C0,6.596 1.547,4.612 4.692,4.612C5.363,4.612 6.033,4.761 6.806,5.009L7.838,-1.24C7.064,-1.587 6.239,-1.735 5.363,-1.735C2.939,-1.735 0.773,-0.446 -0.258,1.537L-0.361,1.537L-0.361,-1.24L-6.703,-1.24L-6.703,25.042L0,25.042ZM-38.982,11.901C-38.982,16.265 -37.796,19.687 -35.372,22.117C-32.949,24.546 -29.907,25.786 -26.194,25.786C-22.481,25.786 -19.439,24.546 -17.016,22.117C-14.592,19.687 -13.406,16.265 -13.406,11.901C-13.406,7.587 -14.644,4.215 -17.119,1.736C-19.594,-0.744 -22.636,-1.983 -26.194,-1.983C-29.752,-1.983 -32.794,-0.744 -35.269,1.736C-37.744,4.215 -38.982,7.587 -38.982,11.901M-30.732,17.901C-31.814,16.513 -32.382,14.529 -32.382,11.901C-32.382,9.273 -31.814,7.29 -30.732,5.901C-29.597,4.513 -28.102,3.819 -26.194,3.819C-24.286,3.819 -22.791,4.513 -21.708,5.951C-20.573,7.339 -20.006,9.322 -20.006,11.901C-20.006,14.48 -20.573,16.463 -21.656,17.901C-22.739,19.29 -24.286,19.984 -26.194,19.984C-28.102,19.984 -29.649,19.29 -30.732,17.901M-57.028,15.67C-57.028,18.943 -56.358,21.323 -54.966,22.811C-53.574,24.298 -51.047,25.042 -47.386,25.042L-44.55,25.042L-44.55,18.844L-46.768,18.844C-49.707,18.844 -50.428,17.852 -50.428,15.075L-50.428,4.215L-43.622,4.215L-43.622,-1.24L-50.532,-1.24L-50.532,-7.686L-56.874,-7.686L-56.874,-1.24L-61.257,-1.24L-61.257,4.215L-57.028,4.215L-57.028,15.67ZM-82.656,25.042L-82.656,16.811L-79.201,13.042L-79.098,13.042L-70.744,25.042L-63.319,25.042L-74.044,9.422L-64.195,-1.24L-72.6,-1.24L-82.552,9.62L-82.656,9.62L-82.656,-11.157L-89.358,-11.157L-89.358,25.042L-82.656,25.042ZM-97.866,-11.157L-104.569,-11.157L-104.569,-5.057L-97.866,-5.057L-97.866,-11.157ZM-97.866,-1.24L-104.569,-1.24L-104.569,25.042L-97.866,25.042L-97.866,-1.24ZM-113.077,25.042L-113.077,-11.157L-119.781,-11.157L-119.781,1.29L-119.883,1.29L-120.554,0.447C-121.379,-0.595 -123.906,-1.983 -126.793,-1.983C-129.939,-1.983 -132.723,-0.744 -135.043,1.785C-137.364,4.265 -138.549,7.637 -138.549,11.901C-138.549,16.116 -137.467,19.488 -135.353,22.017C-133.187,24.546 -130.299,25.786 -126.69,25.786C-125.195,25.786 -123.854,25.489 -122.616,24.894C-121.327,24.249 -120.554,23.753 -120.244,23.406C-119.883,23.059 -119.625,22.761 -119.471,22.513L-119.368,22.513L-119.368,25.042L-113.077,25.042ZM-119.781,14.281C-119.781,17.455 -121.998,19.984 -125.658,19.984C-129.578,19.984 -131.847,17.207 -131.847,11.901C-131.847,6.546 -129.578,3.819 -125.658,3.819C-121.998,3.819 -119.781,6.298 -119.781,9.472L-119.781,14.281ZM-161.804,9.025C-161.547,6 -159.278,3.67 -155.978,3.67C-152.42,3.67 -150.306,5.653 -149.945,9.025L-161.804,9.025ZM-149.069,15.968C-150.873,18.496 -152.678,20.083 -155.771,20.083C-159.433,20.083 -161.598,17.852 -161.804,13.835L-143.448,13.835L-143.448,11.901C-143.448,7.686 -144.634,4.364 -147.006,1.835C-149.326,-0.694 -152.317,-1.983 -155.978,-1.983C-159.639,-1.983 -162.629,-0.694 -165.053,1.835C-167.425,4.364 -168.611,7.686 -168.611,11.901C-168.611,16.116 -167.425,19.488 -165.002,22.017C-162.578,24.546 -159.484,25.786 -155.669,25.786C-150.925,25.786 -147.161,23.852 -144.376,19.935L-149.069,15.968ZM-180.315,25.042L-180.315,10.612C-180.315,6.596 -178.768,4.612 -175.623,4.612C-174.953,4.612 -174.282,4.761 -173.509,5.009L-172.478,-1.24C-173.251,-1.587 -174.076,-1.735 -174.953,-1.735C-177.376,-1.735 -179.542,-0.446 -180.573,1.537L-180.676,1.537L-180.676,-1.24L-187.019,-1.24L-187.019,25.042L-180.315,25.042ZM-213.006,36.199L-213.006,22.513L-212.903,22.513L-212.697,22.86C-212.078,23.703 -209.861,25.786 -205.736,25.786C-202.384,25.786 -199.548,24.546 -197.228,22.066C-194.907,19.588 -193.722,16.216 -193.722,11.901C-193.722,7.637 -194.959,4.265 -197.382,1.785C-199.806,-0.744 -202.59,-1.983 -205.839,-1.983C-211.15,-1.934 -213.212,1.24 -213.212,1.29L-213.315,1.29L-213.315,-1.24L-219.71,-1.24L-219.71,36.199L-213.006,36.199ZM-213.006,9.174C-213.006,6.198 -210.686,3.819 -207.128,3.819C-203.157,3.819 -200.425,6.695 -200.425,11.901C-200.425,17.108 -203.209,19.984 -207.128,19.984C-210.686,19.984 -213.006,17.604 -213.006,14.579L-213.006,9.174Z" style="fill:white;fill-rule:nonzero;"/>
    </g>
</svg>
