<?xml version="1.0" encoding="UTF-8" standalone="no"?>
<!DOCTYPE svg PUBLIC "-//W3C//DTD SVG 1.1//EN" "http://www.w3.org/Graphics/SVG/1.1/DTD/svg11.dtd">
<svg width="100%" height="100%" viewBox="0 0 373 374" version="1.1" xmlns="http://www.w3.org/2000/svg" xmlns:xlink="http://www.w3.org/1999/xlink" xml:space="preserve" xmlns:serif="http://www.serif.com/" style="fill-rule:evenodd;clip-rule:evenodd;stroke-linejoin:round;stroke-miterlimit:2;">
    <g>
        <g transform="matrix(0.976047,0,0,0.976047,-12.1179,-2.92381)">
            <circle cx="178.191" cy="40.272" r="36.883" style="fill:rgb(49,59,149);"/>
        </g>
        <g transform="matrix(0.976047,0,0,0.976047,79.7385,11.538)">
            <circle cx="178.191" cy="40.272" r="36.883" style="fill:rgb(57,112,224);"/>
        </g>
        <g transform="matrix(0.976047,0,0,0.976047,-56.9734,280.489)">
            <circle cx="178.191" cy="40.272" r="36.883" style="fill:rgb(57,112,224);"/>
        </g>
        <g transform="matrix(0.976047,0,0,0.976047,35.4192,296.226)">
            <circle cx="178.191" cy="40.272" r="36.883" style="fill:rgb(57,112,224);"/>
        </g>
        <g transform="matrix(0.976047,0,0,0.976047,160.19,169.764)">
            <circle cx="178.191" cy="40.272" r="36.883" style="fill:rgb(156,183,239);"/>
        </g>
        <g transform="matrix(0.976047,0,0,0.976047,-137.923,123.076)">
            <circle cx="178.191" cy="40.272" r="36.883" style="fill:rgb(57,112,224);"/>
        </g>
        <g transform="matrix(1.27428,0,0,1.27428,64.5703,241.367)">
            <circle cx="178.191" cy="40.272" r="36.883" style="fill:rgb(49,59,149);"/>
        </g>
        <g transform="matrix(1.27428,0,0,1.27428,-176.615,203.802)">
            <circle cx="178.191" cy="40.272" r="36.883" style="fill:rgb(156,183,239);"/>
        </g>
        <g transform="matrix(1.27428,0,0,1.27428,92.7479,66.5491)">
            <circle cx="178.191" cy="40.272" r="36.883" style="fill:rgb(57,112,224);"/>
        </g>
        <g transform="matrix(1.27428,0,0,1.27428,-148.293,27.3062)">
            <circle cx="178.191" cy="40.272" r="36.883" style="fill:rgb(57,112,224);"/>
        </g>
        <g transform="matrix(0.576139,0,0,0.576139,19.9934,129.466)">
            <circle cx="178.191" cy="40.272" r="36.883" style="fill:rgb(49,59,149);"/>
        </g>
        <g transform="matrix(0.596473,0,0,0.596473,28.55,211.258)">
            <circle cx="178.191" cy="40.272" r="36.883" style="fill:rgb(57,112,224);"/>
        </g>
        <g transform="matrix(0.596473,0,0,0.596473,111.396,224.035)">
            <circle cx="178.191" cy="40.272" r="36.883" style="fill:rgb(57,112,224);"/>
        </g>
        <g transform="matrix(0.576139,0,0,0.576139,132.175,113.668)">
            <circle cx="178.191" cy="40.272" r="36.883" style="fill:rgb(57,112,224);"/>
        </g>
        <g transform="matrix(0.718479,0,0,0.718479,57.1352,156.736)">
            <circle cx="178.191" cy="40.272" r="36.883" style="fill:rgb(57,112,224);"/>
        </g>
        <g transform="matrix(0.338905,0,0,0.338905,136.556,101.548)">
            <circle cx="178.191" cy="40.272" r="36.883" style="fill:rgb(49,59,149);"/>
        </g>
        <g transform="matrix(0.338905,0,0,0.338905,195.524,161.542)">
            <circle cx="178.191" cy="40.272" r="36.883" style="fill:rgb(156,183,239);"/>
        </g>
        <g transform="matrix(0.338905,0,0,0.338905,92.2763,108.905)">
            <circle cx="178.191" cy="40.272" r="36.883" style="fill:rgb(156,183,239);"/>
        </g>
        <g transform="matrix(0.338905,0,0,0.338905,54.744,182.582)">
            <circle cx="178.191" cy="40.272" r="36.883" style="fill:rgb(156,183,239);"/>
        </g>
        <g transform="matrix(0.338905,0,0,0.338905,113.724,242.614)">
            <circle cx="178.191" cy="40.272" r="36.883" style="fill:rgb(156,183,239);"/>
        </g>
        <g transform="matrix(0.338905,0,0,0.338905,188.503,204.713)">
            <circle cx="178.191" cy="40.272" r="36.883" style="fill:rgb(49,59,149);"/>
        </g>
    </g>
</svg>
