<?xml version="1.0" encoding="UTF-8" standalone="no"?>
<!DOCTYPE svg PUBLIC "-//W3C//DTD SVG 1.1//EN" "http://www.w3.org/Graphics/SVG/1.1/DTD/svg11.dtd">
<svg width="100%" height="100%" viewBox="0 0 300 300" version="1.1" xmlns="http://www.w3.org/2000/svg" xmlns:xlink="http://www.w3.org/1999/xlink" xml:space="preserve" xmlns:serif="http://www.serif.com/" style="fill-rule:evenodd;clip-rule:evenodd;stroke-linejoin:round;stroke-miterlimit:2;">
    <g id="layer1" transform="matrix(0.536186,0,0,0.536186,-795.812,-1440.23)">
        <path id="path2496" d="M1840.97,2860.98C1842.94,2859.01 1842.94,2855.78 1840.97,2853.81L1767.96,2780.8C1765.99,2778.83 1762.76,2778.83 1760.79,2780.8L1687.78,2853.81C1685.81,2855.78 1685.81,2859.01 1687.78,2860.98L1706.63,2879.83C1708.6,2881.8 1708.6,2885.03 1706.63,2887L1685.15,2908.48C1683.17,2910.45 1679.94,2910.45 1677.97,2908.48L1659.13,2889.64C1657.15,2887.67 1653.92,2887.67 1651.95,2889.64L1578.94,2962.65C1576.97,2964.62 1576.97,2967.85 1578.94,2969.82L1651.95,3042.83C1653.92,3044.8 1657.15,3044.8 1659.13,3042.83L1678.38,3023.57C1680.36,3021.6 1683.59,3021.6 1685.56,3023.57L1706.21,3044.23C1708.19,3046.2 1708.19,3049.43 1706.21,3051.4L1686.95,3070.66C1684.98,3072.63 1684.98,3075.86 1686.95,3077.84L1759.96,3150.85C1761.93,3152.82 1765.16,3152.82 1767.13,3150.85L1840.14,3077.84C1842.11,3075.86 1842.11,3072.63 1840.14,3070.66L1821.3,3051.81C1819.33,3049.84 1819.33,3046.61 1821.3,3044.64L1842.78,3023.16C1844.75,3021.18 1847.99,3021.19 1849.95,3023.16L1868.8,3042.01C1870.77,3043.98 1874,3043.98 1875.98,3042.01L1948.99,2968.99C1950.96,2967.02 1950.96,2963.79 1948.99,2961.82L1875.98,2888.81C1874,2886.84 1870.77,2886.84 1868.8,2888.81L1849.54,2908.07C1847.57,2910.03 1844.34,2910.03 1842.37,2908.07L1821.72,2887.42C1819.75,2885.44 1819.75,2882.22 1821.72,2880.24L1840.97,2860.98ZM1781.72,2880.37C1779.75,2882.34 1779.75,2885.57 1781.72,2887.54L1842.24,2948.07C1844.21,2950.04 1847.44,2950.04 1849.42,2948.07L1868.8,2928.68C1870.78,2926.71 1874,2926.71 1875.98,2928.68L1909.12,2961.82C1911.09,2963.79 1911.09,2967.02 1909.12,2968.99L1875.98,3002.14C1874,3004.11 1870.77,3004.11 1868.8,3002.14L1849.83,2983.17C1847.86,2981.19 1844.63,2981.19 1842.66,2983.17L1781.31,3044.51C1779.34,3046.49 1779.34,3049.72 1781.31,3051.69L1800.28,3070.66C1802.25,3072.63 1802.25,3075.86 1800.28,3077.84L1767.13,3110.98C1765.16,3112.95 1761.94,3112.95 1759.96,3110.98L1726.82,3077.84C1724.85,3075.86 1724.85,3072.63 1726.82,3070.66L1746.21,3051.28C1748.18,3049.3 1748.18,3046.07 1746.21,3044.1L1685.69,2983.57C1683.72,2981.6 1680.48,2981.6 1678.51,2983.57L1659.13,3002.96C1657.15,3004.93 1653.92,3004.93 1651.95,3002.96L1618.81,2969.82C1616.83,2967.85 1616.83,2964.62 1618.81,2962.65L1651.95,2929.5C1653.92,2927.53 1657.15,2927.53 1659.13,2929.5L1678.1,2948.48C1680.07,2950.45 1683.3,2950.45 1685.28,2948.48L1746.62,2887.13C1748.59,2885.15 1748.59,2881.92 1746.62,2879.95L1727.65,2860.98C1725.67,2859.01 1725.67,2855.78 1727.65,2853.81L1760.79,2820.66C1762.76,2818.69 1765.99,2818.69 1767.96,2820.66L1801.1,2853.81C1803.08,2855.78 1803.08,2859.01 1801.1,2860.98L1781.72,2880.37Z" style="fill:rgb(86,159,211);fill-rule:nonzero;"/>
        <path id="path2512" d="M1781.72,2880.37C1779.75,2882.34 1779.75,2885.57 1781.72,2887.54L1842.24,2948.07C1844.21,2950.04 1847.44,2950.04 1849.42,2948.07L1868.8,2928.68C1870.77,2926.7 1874.01,2926.7 1875.98,2928.68L1909.12,2961.82C1911.09,2963.79 1911.09,2967.02 1909.12,2968.99L1875.98,3002.14C1874.01,3004.11 1870.77,3004.11 1868.8,3002.14L1849.83,2983.17C1847.86,2981.2 1844.63,2981.2 1842.65,2983.17L1781.31,3044.52C1779.34,3046.49 1779.34,3049.72 1781.31,3051.69L1800.28,3070.66C1802.25,3072.63 1802.26,3075.86 1800.28,3077.83L1767.14,3110.98C1765.16,3112.95 1761.94,3112.95 1759.97,3110.98L1726.82,3077.83C1724.85,3075.86 1724.85,3072.63 1726.82,3070.66L1746.2,3051.27C1748.17,3049.3 1748.17,3046.07 1746.2,3044.1L1685.68,2983.58C1683.71,2981.6 1680.49,2981.6 1678.51,2983.58L1659.12,3002.96C1657.15,3004.93 1653.92,3004.93 1651.95,3002.96L1618.81,2969.82C1616.84,2967.85 1616.84,2964.61 1618.81,2962.64L1651.95,2929.5C1653.92,2927.53 1657.15,2927.53 1659.12,2929.5L1678.1,2948.48C1680.07,2950.45 1683.3,2950.45 1685.27,2948.48L1746.62,2887.13C1748.59,2885.16 1748.59,2881.93 1746.62,2879.95L1727.65,2860.98C1725.67,2859.01 1725.67,2855.78 1727.65,2853.81L1760.79,2820.66C1762.76,2818.69 1765.99,2818.69 1767.97,2820.66L1801.11,2853.81C1803.08,2855.78 1803.08,2859.01 1801.11,2860.98L1781.72,2880.37Z" style="fill:white;fill-opacity:0.85;fill-rule:nonzero;"/>
    </g>
</svg>
