<?xml version="1.0" encoding="UTF-8" standalone="no"?>
<!DOCTYPE svg PUBLIC "-//W3C//DTD SVG 1.1//EN" "http://www.w3.org/Graphics/SVG/1.1/DTD/svg11.dtd">
<svg width="100%" height="100%" viewBox="0 0 20 20" version="1.1" xmlns="http://www.w3.org/2000/svg" xmlns:xlink="http://www.w3.org/1999/xlink" xml:space="preserve" xmlns:serif="http://www.serif.com/" style="fill-rule:evenodd;clip-rule:evenodd;stroke-linejoin:round;stroke-miterlimit:2;">
    <g transform="matrix(0.0402414,0,0,0.0402414,-48.4708,-54.0845)">
        <path d="M1578.78,1344.2C1578.38,1344.2 1575,1347 1572,1347C1567.7,1347 1566.7,1347.5 1563.1,1350.9C1559.8,1354 1556,1365.7 1556,1367.4C1556,1369.8 1491.8,1412 1490.9,1412C1490,1412 1488.5,1412.9 1487.5,1414C1486.4,1415.2 1473.35,1422.78 1468.6,1423.5C1465,1424.04 1459,1422.6 1459,1418.3C1459,1417.2 1456,1412 1456,1409.1C1456,1404.8 1455.6,1404 1450.7,1399.2L1445.4,1394L1423.2,1394L1391,1426.2L1391,1431C1391,1433.7 1390.5,1436.2 1389.9,1436.5C1388.6,1437.4 1384,1433.2 1384,1431C1384,1430.2 1381.3,1426.8 1378,1423.5C1371.9,1417.5 1370.4,1413.6 1373.5,1412.4C1375.5,1411.6 1375.5,1404.7 1373.6,1403C1372.8,1402.4 1372,1400.9 1371.8,1399.7C1371.5,1397.7 1370.8,1397.5 1364.5,1397.2C1357.5,1396.9 1357.5,1396.9 1353.7,1400.8C1350.4,1404.2 1350.1,1404.8 1351.5,1406C1352.3,1406.7 1359,1420.4 1359,1422C1359,1423.6 1358.3,1425 1357.5,1425.4C1356.5,1425.7 1356,1427.3 1356,1429.9C1356,1432.4 1355.5,1434 1354.5,1434.4C1353.5,1434.7 1353.5,1443.3 1354.5,1443.6C1355.3,1444 1366.7,1465.3 1367.5,1466C1368.7,1467 1369,1470.1 1369,1481.7C1369,1493.5 1359.5,1608.5 1359.5,1608.5L1362,1608.8C1369.1,1609.6 1369,1609.4 1369,1617.1C1369,1622.4 1365.71,1627.31 1366,1635.6C1366.33,1645.27 1334.49,1699.61 1334,1700.6C1312.11,1745.09 1310.72,1764.53 1312,1766.6C1314.97,1771.39 1332.25,1782.1 1337,1782.5C1343.48,1783.04 1355.5,1781 1386.2,1781.2L1421.5,1781.5C1421.5,1781.5 1426,1791 1430,1791C1432.9,1791 1434.4,1791.9 1438.8,1796.4C1444.47,1798.16 1451.83,1819.96 1450,1823.4C1447.56,1827.98 1453.7,1831.2 1458.6,1830.8L1462.5,1830.5C1462.5,1830.5 1465.49,1830.96 1467.5,1781C1467.56,1779.58 1469.93,1757.4 1471.8,1756.2C1475.51,1753.83 1506.04,1775.38 1504.6,1778C1503.88,1779.3 1506,1783.5 1506,1803C1506,1822.9 1506.2,1827 1507.5,1828C1508.3,1828.7 1510.9,1834.5 1513.3,1836.8C1517,1840.5 1518.1,1841 1522,1841C1527,1841 1531.7,1831.7 1532.5,1831.4C1533.8,1830.9 1534,1828 1534,1814C1534,1799.4 1532,1784.05 1531,1784C1527.33,1783.83 1533.17,1747.06 1537,1745.5C1537.65,1745.24 1530.31,1734.01 1527.37,1731.1C1523.84,1727.62 1504.5,1716 1502.3,1716C1497.2,1716 1491,1709.7 1491,1704.6C1491,1702.3 1454.7,1628.1 1453,1626.5C1450.2,1623.9 1450,1623.1 1450,1616.9C1450,1611.5 1449.2,1591.5 1451.5,1590.6C1452.7,1590.2 1453.3,1528.8 1454.5,1528.4C1455.3,1528 1456,1526.8 1456,1525.5C1456,1524.3 1459.9,1516.5 1461,1515.5C1462.6,1514.1 1463,1512.4 1463,1507.3C1463,1501.1 1463.1,1500.9 1467.5,1496.7C1471.2,1493.1 1472,1491.7 1472,1488.6C1472,1486.3 1495.36,1448.87 1497,1446.4C1497.94,1444.99 1555.2,1397 1556.1,1397C1557,1397 1574.2,1384 1575.1,1384C1576,1384 1580.7,1380.2 1585.4,1375.6C1594,1367.2 1594,1367.2 1594,1362C1594,1358.4 1591,1354.9 1591,1353.8C1591,1351 1579.18,1344.2 1578.78,1344.2ZM1410.5,1706C1416.5,1706.04 1440.35,1729.74 1437,1731.5C1432.71,1733.75 1379.77,1736.86 1381.2,1731.7C1381.77,1729.64 1408.1,1705.98 1410.5,1706Z" style="fill:#525c62;fill-rule:nonzero;"/>
    </g>
</svg>
