<?xml version="1.0" encoding="UTF-8" standalone="no"?>
<!DOCTYPE svg PUBLIC "-//W3C//DTD SVG 1.1//EN" "http://www.w3.org/Graphics/SVG/1.1/DTD/svg11.dtd">
<svg width="100%" height="100%" viewBox="0 0 24 24" version="1.1" xmlns="http://www.w3.org/2000/svg" xmlns:xlink="http://www.w3.org/1999/xlink" xml:space="preserve" xmlns:serif="http://www.serif.com/" style="fill-rule:evenodd;clip-rule:evenodd;stroke-linejoin:round;stroke-miterlimit:2;">
    <path id="authorisation" d="M3,19.031L3,13.406C3,12.94 3.378,12.563 3.844,12.563L10.594,12.563C11.06,12.563 11.438,12.94 11.438,13.406L11.438,19.031C11.438,19.497 11.06,19.875 10.594,19.875L3.844,19.875C3.378,19.875 3,19.497 3,19.031ZM17.975,16.662L18.21,16.662C19.253,16.662 20.1,17.509 20.1,18.552L20.1,19.137C20.1,19.51 19.798,19.812 19.425,19.812L14.475,19.812C14.102,19.812 13.8,19.51 13.8,19.137L13.8,18.552C13.8,17.509 14.647,16.662 15.69,16.662L15.925,16.662C16.238,16.805 16.584,16.887 16.95,16.887C17.316,16.887 17.663,16.805 17.975,16.662ZM18.75,14.412C18.75,15.406 17.944,16.212 16.95,16.212C15.956,16.212 15.15,15.406 15.15,14.412C15.15,13.418 15.956,12.612 16.95,12.612C17.944,12.612 18.75,13.418 18.75,14.412ZM20.156,4.125L13.406,4.125C12.94,4.125 12.563,4.503 12.563,4.969L12.563,10.594C12.563,11.06 12.94,11.437 13.406,11.437L20.156,11.437C20.622,11.437 21,11.06 21,10.594L21,4.969C21,4.503 20.622,4.125 20.156,4.125ZM3.844,4.125L10.594,4.125C11.06,4.125 11.438,4.503 11.438,4.969L11.438,10.594C11.438,11.06 11.06,11.437 10.594,11.437L3.844,11.437C3.378,11.437 3,11.06 3,10.594L3,4.969C3,4.503 3.378,4.125 3.844,4.125Z" style="fill-rule:nonzero;"/>
</svg>
