<?xml version="1.0" encoding="UTF-8" standalone="no"?>
<!DOCTYPE svg PUBLIC "-//W3C//DTD SVG 1.1//EN" "http://www.w3.org/Graphics/SVG/1.1/DTD/svg11.dtd">
<svg width="100%" height="100%" viewBox="0 0 24 24" version="1.1" xmlns="http://www.w3.org/2000/svg" xmlns:xlink="http://www.w3.org/1999/xlink" xml:space="preserve" xmlns:serif="http://www.serif.com/" style="fill-rule:evenodd;clip-rule:evenodd;stroke-linejoin:round;stroke-miterlimit:2;">
    <g transform="matrix(0.00881912,0,0,0.00881912,2.13185,2)">
        <path d="M1165.9,0C1762.1,24.9 2237.9,522.8 2237.9,1133.4C2237.9,1759.9 1736.9,2267.8 1119,2267.8C501,2267.7 0,1759.9 0,1133.4C0,857.2 97.3,604.1 259.2,407.4L421.9,524.6C282.9,688 198.9,900.7 198.9,1133.4C198.9,1648.5 610.8,2066.1 1118.9,2066.1C1627,2066.1 2038.9,1648.5 2038.9,1133.4C2038.9,635.6 1654.1,228.8 1169.6,202.1L1165.9,0ZM854.6,1505.8C845.3,1505.8 840.6,1502.2 840.6,1495.1C840.6,1491.5 841.3,1488.7 842.7,1486.5L1244.6,764.4C1248.2,757.2 1254.6,753.7 1263.9,753.7L1371.4,753.7C1375.7,753.7 1378.9,754.8 1381.1,756.9C1384,758.3 1385.4,760.5 1385.4,763.3C1385.4,766.2 1384.3,769.4 1382.2,773L981.4,1495.1C977.8,1502.3 971.4,1505.8 962.1,1505.8L854.6,1505.8ZM1334.9,1514.4C1301.9,1514.4 1271.5,1506.5 1243.6,1490.8C1215.7,1474.3 1193.5,1452.1 1177,1424.2C1160.5,1396.3 1152.3,1365.8 1152.3,1332.9C1152.3,1299.9 1160.5,1269.9 1177,1242.6C1193.5,1214.7 1215.7,1192.8 1243.6,1177C1271.5,1160.5 1302,1152.3 1334.9,1152.3C1367.9,1152.3 1397.9,1160.5 1425.2,1177C1453.1,1192.8 1475.3,1214.6 1491.8,1242.6C1508.3,1269.8 1516.5,1299.9 1516.5,1332.9C1516.5,1365.9 1508.3,1396.3 1491.8,1424.2C1476,1452.1 1454.2,1474.3 1426.2,1490.8C1398.3,1506.5 1367.9,1514.4 1334.9,1514.4ZM1334.9,1399.4C1352.8,1399.4 1367.9,1393 1380,1380.1C1392.9,1367.2 1399.3,1351.4 1399.3,1332.8C1399.3,1314.9 1392.9,1299.5 1380,1286.6C1367.8,1273.7 1352.8,1267.3 1334.9,1267.3C1317,1267.3 1301.6,1273.7 1288.7,1286.6C1275.8,1298.8 1269.4,1314.2 1269.4,1332.8C1269.4,1351.4 1275.5,1367.2 1287.7,1380.1C1300.6,1393 1316.3,1399.4 1334.9,1399.4ZM904,1107.1C871,1107.1 840.6,1099.2 812.7,1083.5C784.8,1067 762.6,1044.8 746.1,1016.9C729.6,989 721.4,958.5 721.4,925.6C721.4,892.6 729.6,862.6 746.1,835.3C762.6,807.4 784.8,785.5 812.7,769.7C840.6,753.2 871.1,745 904,745C936.9,745 967,753.2 994.3,769.7C1022.2,785.5 1044.4,807.3 1060.9,835.3C1077.4,862.5 1085.6,892.6 1085.6,925.6C1085.6,958.6 1077.4,989 1060.9,1016.9C1045.1,1044.8 1023.3,1067 995.3,1083.5C967.4,1099.3 937,1107.1 904,1107.1ZM904,992.1C921.9,992.1 937,985.7 949.1,972.8C962,959.9 968.4,944.1 968.4,925.5C968.4,907.6 962,892.2 949.1,879.3C937,866.4 921.9,860 904,860C886.1,860 870.7,866.4 857.8,879.3C844.9,891.5 838.5,906.9 838.5,925.5C838.5,944.1 844.6,959.9 856.8,972.8C869.6,985.7 885.4,992.1 904,992.1Z" style="fill:rgb(34,34,33);fill-rule:nonzero;"/>
    </g>
</svg>
