<?xml version="1.0" encoding="UTF-8" standalone="no"?>
<!DOCTYPE svg PUBLIC "-//W3C//DTD SVG 1.1//EN" "http://www.w3.org/Graphics/SVG/1.1/DTD/svg11.dtd">
<svg width="100%" height="100%" viewBox="0 0 24 24" version="1.1" xmlns="http://www.w3.org/2000/svg" xmlns:xlink="http://www.w3.org/1999/xlink" xml:space="preserve" xmlns:serif="http://www.serif.com/" style="fill-rule:evenodd;clip-rule:evenodd;stroke-linejoin:round;stroke-miterlimit:2;">
    <g transform="matrix(2.3367,0,0,2.3367,-18.0675,-23.8835)">
        <path d="M8.589,16.322C8.642,15.579 8.802,14.969 9.227,14.498C9.638,14.072 10.155,13.844 10.778,13.844C11.203,13.844 11.553,13.92 11.842,14.057C12.115,14.194 12.343,14.33 12.541,14.437L13.149,14.832C13.286,14.923 13.423,15.03 13.559,15.136C13.696,15.242 13.848,15.334 14,15.425C14.35,15.638 14.623,15.729 14.851,15.729C15.064,15.729 15.231,15.698 15.368,15.638C15.49,15.562 15.596,15.47 15.687,15.349C15.87,15.09 15.961,14.771 15.961,14.391C15.913,13.782 17.152,13.714 17.147,14.391C17.142,15.151 16.934,15.759 16.508,16.215C16.098,16.641 15.581,16.869 14.958,16.869C14.547,16.869 14.182,16.793 13.879,16.641C13.575,16.504 13.331,16.367 13.149,16.246L12.039,15.516C11.507,15.151 11.082,14.984 10.778,14.984C10.489,14.984 10.246,15.106 10.048,15.364C9.866,15.622 9.802,15.943 9.774,16.322C9.727,16.97 8.548,16.903 8.589,16.322Z" style="fill-rule:nonzero;"/>
    </g>
</svg>
