<?xml version="1.0" encoding="UTF-8" standalone="no"?>
<!DOCTYPE svg PUBLIC "-//W3C//DTD SVG 1.1//EN" "http://www.w3.org/Graphics/SVG/1.1/DTD/svg11.dtd">
<svg width="100%" height="100%" viewBox="0 0 24 24" version="1.1" xmlns="http://www.w3.org/2000/svg" xmlns:xlink="http://www.w3.org/1999/xlink" xml:space="preserve" xmlns:serif="http://www.serif.com/" style="fill-rule:evenodd;clip-rule:evenodd;stroke-linejoin:round;stroke-miterlimit:2;">
    <g transform="matrix(1.25,0,0,1.25,4.55684,1.88875)">
        <path d="M6.182,0.089C6.664,0.092 7.07,0.323 7.375,0.781C7.375,0.807 7.401,0.832 7.401,0.832C7.529,0.781 7.658,0.73 7.811,0.704C8.324,0.576 8.811,0.756 9.068,1.14C9.273,1.448 9.299,1.832 9.17,2.217C9.119,2.345 9.068,2.473 9.017,2.576L8.991,2.627C8.94,2.756 8.888,2.832 8.863,2.909C8.786,3.115 8.606,3.679 8.427,4.14L8.196,4.807C9.401,5.576 10.299,6.602 10.76,7.756C11.299,9.115 11.376,9.653 11.017,11.653C10.863,12.345 10.735,13.345 11.042,14.089C11.068,14.191 11.17,14.32 11.247,14.422C11.35,14.55 11.452,14.679 11.529,14.833C11.606,14.961 11.606,15.14 11.478,15.268C11.35,15.499 11.119,15.525 10.504,15.55C10.196,15.55 9.837,15.576 9.658,15.576L9.581,15.576C9.196,15.576 8.811,15.653 8.427,15.73C8.35,15.756 8.273,15.756 8.196,15.781C8.145,15.807 8.068,15.833 7.991,15.833C7.299,15.961 6.581,16.089 5.837,16.089C5.529,16.089 5.196,16.063 4.888,16.012C4.606,15.961 4.324,15.884 4.068,15.807C3.555,15.679 3.042,15.55 2.555,15.576C2.452,15.576 2.35,15.602 2.222,15.602C1.811,15.627 1.375,15.679 0.94,15.576C0.709,15.525 0.504,15.371 0.401,15.14C0.299,14.909 0.299,14.653 0.427,14.448C0.504,14.32 0.581,14.191 0.658,14.089C0.734,13.961 0.811,13.858 0.863,13.756C0.991,13.422 1.068,13.115 1.042,12.833C1.017,12.525 0.94,12.217 0.888,11.909C0.863,11.833 0.863,11.756 0.837,11.679C0.555,10.243 0.324,8.653 1.734,6.653C2.17,6.038 2.786,5.448 3.529,4.935C3.555,4.909 3.606,4.858 3.658,4.832C3.715,4.794 3.769,4.756 3.822,4.717L3.928,4.64C3.982,4.602 4.036,4.563 4.093,4.525C3.734,3.986 3.042,2.909 2.965,2.756C2.786,2.371 2.811,1.961 2.991,1.627C3.299,1.115 3.837,1.038 4.401,1.038L4.786,1.038C4.811,0.961 4.837,0.909 4.863,0.858L4.888,0.832C5.222,0.268 5.709,0.115 6.068,0.089L6.182,0.089ZM6.533,7.885C7.184,7.885 7.528,8.252 7.593,8.482C7.602,8.516 7.632,8.539 7.667,8.539L8.566,8.539C8.615,8.537 8.645,8.505 8.645,8.462C8.645,8.447 8.641,8.434 8.634,8.422C8.533,8.004 7.86,6.892 6.533,6.892C5.77,6.892 5.161,7.18 4.724,7.749C4.503,8.035 4.339,8.37 4.229,8.75L3.711,8.75C3.669,8.75 3.634,8.784 3.634,8.827L3.634,9.649C3.634,9.691 3.669,9.726 3.711,9.726L4.079,9.726C4.075,9.806 4.071,9.887 4.071,9.97C4.071,10.065 4.075,10.157 4.079,10.248L3.711,10.248C3.669,10.248 3.634,10.283 3.634,10.326L3.634,11.147C3.634,11.19 3.669,11.225 3.711,11.225L4.236,11.225C4.345,11.598 4.507,11.928 4.723,12.213C5.161,12.79 5.769,13.083 6.533,13.083C7.931,13.083 8.517,11.977 8.632,11.392C8.637,11.369 8.63,11.346 8.616,11.328C8.602,11.31 8.58,11.3 8.557,11.3L7.682,11.292C7.646,11.292 7.615,11.316 7.607,11.351C7.551,11.582 7.205,12.089 6.533,12.089C6.091,12.089 5.754,11.902 5.501,11.518C5.442,11.428 5.391,11.329 5.345,11.225L6.464,11.225C6.507,11.225 6.542,11.19 6.542,11.148L6.542,10.326C6.542,10.283 6.507,10.248 6.464,10.248L5.13,10.248C5.124,10.157 5.115,10.067 5.115,9.97C5.115,9.886 5.118,9.805 5.122,9.726L6.464,9.726C6.507,9.726 6.541,9.691 6.541,9.649L6.541,8.827C6.541,8.784 6.507,8.75 6.464,8.75L5.332,8.75C5.38,8.639 5.436,8.536 5.5,8.441C5.753,8.067 6.091,7.885 6.533,7.885Z" style="fill-rule:nonzero;"/>
    </g>
</svg>
