<?xml version="1.0" encoding="UTF-8" standalone="no"?>
<!DOCTYPE svg PUBLIC "-//W3C//DTD SVG 1.1//EN" "http://www.w3.org/Graphics/SVG/1.1/DTD/svg11.dtd">
<svg width="100%" height="100%" viewBox="0 0 24 24" version="1.1" xmlns="http://www.w3.org/2000/svg" xmlns:xlink="http://www.w3.org/1999/xlink" xml:space="preserve" xmlns:serif="http://www.serif.com/" style="fill-rule:evenodd;clip-rule:evenodd;stroke-linejoin:round;stroke-miterlimit:2;">
    <g transform="matrix(0.714286,0,0,0.714286,2,3.436)">
        <path d="M0,14C0,17.905 1.602,21.439 4.185,23.979L6.84,21.355C4.924,19.49 3.733,16.883 3.733,14C3.733,8.334 8.334,3.733 14,3.733C19.666,3.733 24.267,8.334 24.267,14C24.267,16.764 23.172,19.275 21.393,21.121C18.908,18.079 15.062,13.373 15.008,13.317C14.982,13.292 14.89,13.213 14.89,13.213C14.446,12.877 13.802,12.939 13.384,13.382C12.966,13.824 12.919,14.495 13.252,14.949C13.252,14.949 13.306,15.02 13.354,15.07C13.424,15.142 21.08,21.635 23.022,23.281C23.138,23.38 23.231,23.462 23.3,23.524C23.4,23.612 23.453,23.659 23.46,23.651C23.467,23.644 23.42,23.589 23.333,23.488C23.283,23.43 23.22,23.356 23.147,23.268L23.841,23.954C26.408,21.415 28,17.892 28,14C28,6.273 21.727,0 14,0C6.273,0 0,6.273 0,14Z"/>
    </g>
</svg>
