<?xml version="1.0" encoding="UTF-8" standalone="no"?>
<!DOCTYPE svg PUBLIC "-//W3C//DTD SVG 1.1//EN" "http://www.w3.org/Graphics/SVG/1.1/DTD/svg11.dtd">
<svg width="100%" height="100%" viewBox="0 0 24 24" version="1.1" xmlns="http://www.w3.org/2000/svg" xmlns:xlink="http://www.w3.org/1999/xlink" xml:space="preserve" xmlns:serif="http://www.serif.com/" style="fill-rule:evenodd;clip-rule:evenodd;stroke-linejoin:round;stroke-miterlimit:2;">
    <g transform="matrix(0.666667,0,0,0.666667,2,5.33333)">
        <path d="M20.943,2.124C22.618,3.499 23.765,5.412 24.188,7.537C27.438,7.775 30,10.45 30,13.75C30,14.571 29.838,15.384 29.524,16.142C29.21,16.9 28.75,17.589 28.169,18.169C27.589,18.75 26.9,19.21 26.142,19.524C25.384,19.838 24.571,20 23.75,20L7.5,20C5.511,20 3.603,19.21 2.197,17.803C0.79,16.397 0,14.489 0,12.5C-0.001,10.651 0.682,8.866 1.916,7.489C3.15,6.112 4.849,5.239 6.688,5.037C8.25,2.05 11.387,0 15,0C17.167,-0.001 19.267,0.75 20.943,2.124ZM9.778,14.058C10.114,14.229 10.501,14.314 10.938,14.314C11.375,14.314 11.759,14.234 12.09,14.074C12.426,13.909 12.685,13.679 12.866,13.386C13.053,13.093 13.146,12.754 13.146,12.37C13.146,12.322 13.106,12.295 13.026,12.29L11.762,12.226C11.725,12.221 11.695,12.226 11.674,12.242C11.653,12.258 11.642,12.282 11.642,12.314C11.642,12.527 11.578,12.701 11.45,12.834C11.322,12.962 11.151,13.026 10.938,13.026C10.725,13.026 10.554,12.962 10.426,12.834C10.298,12.701 10.234,12.527 10.234,12.314L10.234,10.594C10.234,10.375 10.298,10.202 10.426,10.074C10.554,9.941 10.725,9.874 10.938,9.874C11.151,9.874 11.322,9.941 11.45,10.074C11.578,10.202 11.642,10.375 11.642,10.594C11.642,10.653 11.674,10.682 11.738,10.682L11.762,10.682L13.026,10.602C13.106,10.591 13.146,10.562 13.146,10.514C13.146,10.13 13.053,9.794 12.866,9.506C12.685,9.213 12.426,8.986 12.09,8.826C11.759,8.666 11.375,8.586 10.938,8.586C10.501,8.586 10.114,8.671 9.778,8.842C9.447,9.013 9.189,9.253 9.002,9.562C8.821,9.871 8.73,10.229 8.73,10.634L8.73,12.25C8.73,12.661 8.821,13.023 9.002,13.338C9.189,13.647 9.447,13.887 9.778,14.058ZM14.669,14.082C15.01,14.258 15.402,14.346 15.845,14.346C16.293,14.346 16.685,14.258 17.021,14.082C17.362,13.901 17.626,13.65 17.813,13.33C18,13.005 18.093,12.629 18.093,12.202L18.093,10.698C18.093,10.282 18,9.914 17.813,9.594C17.626,9.274 17.362,9.026 17.021,8.85C16.685,8.674 16.293,8.586 15.845,8.586C15.402,8.586 15.01,8.674 14.669,8.85C14.333,9.026 14.072,9.274 13.885,9.594C13.698,9.914 13.605,10.282 13.605,10.698L13.605,12.202C13.605,12.629 13.698,13.005 13.885,13.33C14.072,13.65 14.333,13.901 14.669,14.082ZM16.381,12.842C16.248,12.986 16.069,13.058 15.845,13.058C15.626,13.058 15.448,12.986 15.309,12.842C15.176,12.693 15.109,12.495 15.109,12.25L15.109,10.682C15.109,10.437 15.176,10.242 15.309,10.098C15.448,9.949 15.626,9.874 15.845,9.874C16.069,9.874 16.248,9.949 16.381,10.098C16.52,10.242 16.589,10.437 16.589,10.682L16.589,12.25C16.589,12.495 16.52,12.693 16.381,12.842ZM18.59,11.026C18.611,11.047 18.64,11.058 18.678,11.058L20.918,11.058C20.955,11.058 20.984,11.047 21.006,11.026C21.027,11.005 21.038,10.975 21.038,10.938L21.038,10.37C21.038,10.333 21.027,10.303 21.006,10.282C20.984,10.261 20.955,10.25 20.918,10.25L19.886,10.25C19.87,10.25 19.859,10.245 19.854,10.234C19.854,10.223 19.859,10.213 19.87,10.202C20.27,9.839 20.528,9.594 20.646,9.466C20.763,9.327 20.851,9.197 20.91,9.074C20.974,8.946 21.006,8.818 21.006,8.69C21.006,8.503 20.955,8.333 20.854,8.178C20.758,8.018 20.616,7.893 20.43,7.802C20.243,7.706 20.024,7.658 19.774,7.658C19.432,7.658 19.144,7.741 18.91,7.906C18.675,8.071 18.547,8.293 18.526,8.57L18.526,8.762C18.526,8.799 18.536,8.829 18.558,8.85C18.579,8.871 18.608,8.882 18.646,8.882L19.358,8.882C19.395,8.882 19.424,8.871 19.446,8.85C19.467,8.829 19.478,8.799 19.478,8.762L19.478,8.722C19.478,8.647 19.504,8.586 19.558,8.538C19.616,8.49 19.688,8.466 19.774,8.466C19.859,8.466 19.926,8.49 19.974,8.538C20.027,8.581 20.054,8.637 20.054,8.706C20.054,8.823 19.91,9.018 19.622,9.29C19.2,9.69 18.87,9.994 18.63,10.202C18.582,10.239 18.558,10.287 18.558,10.346L18.558,10.938C18.558,10.975 18.568,11.005 18.59,11.026Z"/>
    </g>
</svg>
