<?xml version="1.0" encoding="UTF-8" standalone="no"?>
<!DOCTYPE svg PUBLIC "-//W3C//DTD SVG 1.1//EN" "http://www.w3.org/Graphics/SVG/1.1/DTD/svg11.dtd">
<svg width="100%" height="100%" viewBox="0 0 24 24" version="1.1" xmlns="http://www.w3.org/2000/svg" xmlns:xlink="http://www.w3.org/1999/xlink" xml:space="preserve" xmlns:serif="http://www.serif.com/" style="fill-rule:evenodd;clip-rule:evenodd;stroke-linejoin:round;stroke-miterlimit:2;">
    <g transform="matrix(0.72,-1.10263e-15,1.10263e-15,0.72,1.52219,3)">
        <path d="M6.435,22.008C5.88,22.09 5.244,22.954 5.244,23.606C5.244,24.927 6.891,25.482 7.87,24.503C8.962,23.411 8.016,21.764 6.435,22.008ZM13.479,13.839C12.615,13.986 12.386,14.084 11.864,14.557C11.114,15.209 10.723,16.236 10.837,17.263C11.212,20.557 11.571,21.275 13.234,22.025C14.653,22.677 16.251,22.334 17.262,21.177C18.256,20.035 18.354,18.552 17.523,17.214C17.278,16.807 16.887,16.154 16.658,15.78C16.43,15.388 16.153,14.948 16.022,14.801C15.55,14.23 14.18,13.725 13.479,13.839ZM20.588,17.899C20.18,18.242 20.083,18.437 20.083,18.959C20.083,20.313 21.583,20.9 22.545,19.938C23.148,19.334 23.164,18.649 22.594,17.981C22.056,17.329 21.305,17.296 20.588,17.899ZM4.674,12.241C3.809,12.633 2.864,13.709 2.619,14.573C2.211,16.122 2.913,18.03 4.168,18.666C6.663,19.97 9.533,18.242 9.533,15.437C9.533,14.263 9.256,13.643 8.342,12.877C7.25,11.931 5.88,11.687 4.674,12.241ZM21.974,12.094C20.344,12.584 20.115,14.818 21.632,15.453C22.349,15.747 22.594,15.747 23.279,15.421C24.387,14.883 24.681,13.415 23.849,12.567C23.588,12.306 23.262,12.094 23.132,12.094C22.985,12.094 22.789,12.062 22.659,12.029C22.545,11.996 22.235,12.029 21.974,12.094ZM14.783,4.414C13.952,4.789 13.136,5.637 12.892,6.355C12.647,7.088 12.778,8.605 13.136,9.371C13.495,10.089 14.897,11.263 16.137,11.866C17.588,12.567 18.827,12.257 19.724,10.953C20.164,10.301 20.213,9.11 19.838,8.018C19.708,7.61 19.528,6.991 19.43,6.616C18.925,4.561 16.724,3.517 14.783,4.414ZM26.784,8.768C26.393,9.094 26.279,9.322 26.279,9.795C26.279,11.344 28.252,11.834 28.937,10.448C29.295,9.714 29.067,8.931 28.382,8.589C27.73,8.246 27.355,8.279 26.784,8.768ZM0.434,8.262C-0.186,8.866 -0.137,9.812 0.548,10.382C0.972,10.741 1.184,10.806 1.641,10.725C3.467,10.448 3.336,7.855 1.494,7.855C1.005,7.855 0.728,7.953 0.434,8.262ZM5.978,5.474C5.391,5.735 4.641,6.567 4.494,7.137C4.331,7.79 4.527,8.996 4.869,9.469C5.44,10.219 6.108,10.496 7.576,10.562C8.734,10.611 9.044,10.562 9.663,10.252C10.576,9.795 11.017,9.029 11.017,7.936C11.017,6.925 10.56,5.963 9.908,5.556C9.516,5.311 9.092,5.262 7.935,5.262C7.119,5.262 6.239,5.36 5.978,5.474ZM23.099,0.909C21.844,1.447 21.289,2.816 21.811,4.072C22.643,6.078 25.072,6.078 26.083,4.105C27.127,2.066 25.186,-0.005 23.099,0.909ZM10.055,0.436C9.712,0.762 9.647,0.99 9.647,1.724C9.647,2.507 9.696,2.653 10.152,3.028C10.723,3.517 11.245,3.566 11.93,3.208C12.908,2.702 13.055,1.528 12.24,0.599C11.587,-0.135 10.674,-0.2 10.055,0.436Z" style="fill-rule:nonzero;"/>
    </g>
</svg>
