<?xml version="1.0" encoding="UTF-8" standalone="no"?>
<!DOCTYPE svg PUBLIC "-//W3C//DTD SVG 1.1//EN" "http://www.w3.org/Graphics/SVG/1.1/DTD/svg11.dtd">
<svg width="100%" height="100%" viewBox="0 0 24 24" version="1.1" xmlns="http://www.w3.org/2000/svg" xmlns:xlink="http://www.w3.org/1999/xlink" xml:space="preserve" xmlns:serif="http://www.serif.com/" style="fill-rule:evenodd;clip-rule:evenodd;stroke-linejoin:round;stroke-miterlimit:2;">
    <g transform="matrix(0.8,0,0,0.8,2,4)">
        <path d="M18.75,7.5L18.75,2.5L12.5,7.5L12.5,2.5L6.25,7.5L6.25,0L0,0L0,20L25,20L25,2.5L18.75,7.5ZM8.75,16.25L6.25,16.25L6.25,12.5L8.75,12.5L8.75,16.25ZM15,16.25L12.5,16.25L12.5,12.5L15,12.5L15,16.25ZM21.25,16.25L18.75,16.25L18.75,12.5L21.25,12.5L21.25,16.25Z" style="fill-rule:nonzero;"/>
    </g>
</svg>
