<?xml version="1.0" encoding="UTF-8" standalone="no"?>
<!DOCTYPE svg PUBLIC "-//W3C//DTD SVG 1.1//EN" "http://www.w3.org/Graphics/SVG/1.1/DTD/svg11.dtd">
<svg width="100%" height="100%" viewBox="0 0 24 24" version="1.1" xmlns="http://www.w3.org/2000/svg" xmlns:xlink="http://www.w3.org/1999/xlink" xml:space="preserve" xmlns:serif="http://www.serif.com/" style="fill-rule:evenodd;clip-rule:evenodd;stroke-linejoin:round;stroke-miterlimit:2;">
    <g transform="matrix(1.5,-2.29714e-15,2.29714e-15,1.5,3,3.015)">
        <path d="M8.533,5.565L8.533,4.38L10.133,4.38L10.133,5.18L10.933,5.18L10.933,3.036L8.333,1.883L6,0L3.533,1.989L1.067,3.031L1.067,4.647L1.867,4.647L1.867,4.38L3.467,4.38L3.467,5.565L0,6.597L0,8.78L0.8,8.78L0.8,7.98L3.255,7.98L2.363,11.18L0.933,11.18L0.933,11.98L11.067,11.98L11.067,11.18L9.637,11.18L8.745,7.98L11.2,7.98L11.2,8.78L12,8.78L12,6.597L8.533,5.565ZM7.733,2.513L7.733,3.58L4.267,3.58L4.267,2.548L7.733,2.513ZM10.133,3.58L8.533,3.58L8.533,2.847L10.133,3.556L10.133,3.58ZM6.851,1.713L5.149,1.713L6,1.027L6.851,1.713ZM1.867,3.58L1.867,3.561L3.467,2.887L3.467,3.58L1.867,3.58ZM7.733,4.38L7.733,5.327L4.267,5.313L4.267,4.38L7.733,4.38ZM4.267,7.18L4.267,6.161L7.733,6.161L7.733,7.18L4.267,7.18ZM0.847,7.18L3.467,6.4L3.467,7.18L0.847,7.18ZM4.625,11.18L6.015,10.203L7.403,11.18L4.625,11.18ZM8.807,11.18L6.015,9.224L3.2,11.18L4.092,7.98L7.915,7.98L8.807,11.18ZM8.533,7.18L8.533,6.4L11.153,7.18L8.533,7.18Z" style="fill-rule:nonzero;"/>
    </g>
</svg>
