<?xml version="1.0" encoding="UTF-8" standalone="no"?>
<!DOCTYPE svg PUBLIC "-//W3C//DTD SVG 1.1//EN" "http://www.w3.org/Graphics/SVG/1.1/DTD/svg11.dtd">
<svg width="100%" height="100%" viewBox="0 0 24 24" version="1.1" xmlns="http://www.w3.org/2000/svg" xmlns:xlink="http://www.w3.org/1999/xlink" xml:space="preserve" xmlns:serif="http://www.serif.com/" style="fill-rule:evenodd;clip-rule:evenodd;stroke-linejoin:round;stroke-miterlimit:2;">
    <g transform="matrix(1.53846,0,0,1.53846,3.53846,2)">
        <path d="M10,8.34C10,10.92 8,13 5.5,13C3,13 1,10.92 1,8.34C1,5.24 5.5,0 5.5,0C5.5,0 10,5.24 10,8.34ZM7.527,8.723C7.234,8.43 6.754,8.43 6.461,8.723C6.168,9.016 6.168,9.496 6.461,9.789C6.754,10.082 7.234,10.082 7.527,9.789C7.82,9.496 7.82,9.016 7.527,8.723ZM7.504,6.016L7.234,5.746C7.094,5.605 6.848,5.605 6.707,5.746L3.484,8.969C3.344,9.109 3.344,9.355 3.484,9.496L3.754,9.766C3.895,9.906 4.141,9.906 4.281,9.766L7.504,6.543C7.645,6.402 7.645,6.156 7.504,6.016ZM4.527,6.789C4.82,6.496 4.82,6.016 4.527,5.723C4.234,5.43 3.754,5.43 3.461,5.723C3.168,6.016 3.168,6.496 3.461,6.789C3.754,7.082 4.234,7.082 4.527,6.789Z" style="fill-rule:nonzero;"/>
    </g>
</svg>
