<?xml version="1.0" encoding="UTF-8" standalone="no"?>
<!DOCTYPE svg PUBLIC "-//W3C//DTD SVG 1.1//EN" "http://www.w3.org/Graphics/SVG/1.1/DTD/svg11.dtd">
<svg width="100%" height="100%" viewBox="0 0 24 24" version="1.1" xmlns="http://www.w3.org/2000/svg" xmlns:xlink="http://www.w3.org/1999/xlink" xml:space="preserve" xmlns:serif="http://www.serif.com/" style="fill-rule:evenodd;clip-rule:evenodd;stroke-linejoin:round;stroke-miterlimit:2;">
    <g transform="matrix(1,0,0,1,1.50705,4.99998)">
        <path d="M17.371,2.555L14.543,2.555C14.066,2.555 13.608,2.136 13.631,1.643C13.653,1.148 14.032,0.731 14.543,0.731L19.574,0.731C19.659,0.731 19.743,0.743 19.822,0.767C19.971,0.805 20.109,0.882 20.217,1C20.232,1.016 20.246,1.032 20.259,1.049C20.4,1.21 20.486,1.419 20.486,1.643L20.486,6.674C20.486,7.15 20.066,7.609 19.574,7.586C19.079,7.563 18.662,7.185 18.662,6.674L18.662,3.846L13.48,9.027C13.168,9.34 12.86,9.657 12.545,9.962C12.541,9.967 12.536,9.971 12.532,9.976C12.182,10.325 11.59,10.325 11.241,9.976L8.162,6.897L2.885,12.174C2.611,12.448 2.342,12.726 2.064,12.995C2.059,13 2.057,13.002 2.053,13.007C1.715,13.344 1.095,13.369 0.762,13.007C0.427,12.642 0.399,12.076 0.762,11.716L6.684,5.793C6.958,5.52 7.227,5.241 7.505,4.972C7.51,4.968 7.512,4.966 7.517,4.961C7.866,4.612 8.458,4.612 8.807,4.961L11.886,8.04L17.371,2.555Z" style="fill-rule:nonzero;"/>
    </g>
</svg>
