<?xml version="1.0" encoding="UTF-8" standalone="no"?>
<!DOCTYPE svg PUBLIC "-//W3C//DTD SVG 1.1//EN" "http://www.w3.org/Graphics/SVG/1.1/DTD/svg11.dtd">
<svg width="100%" height="100%" viewBox="0 0 24 24" version="1.1" xmlns="http://www.w3.org/2000/svg" xmlns:xlink="http://www.w3.org/1999/xlink" xml:space="preserve" xmlns:serif="http://www.serif.com/" style="fill-rule:evenodd;clip-rule:evenodd;stroke-linejoin:round;stroke-miterlimit:2;">
    <g transform="matrix(0.89579,0,0,0.89579,3.08689,3.08689)">
        <path d="M2,19.997C0.843,19.997 -0.097,19.057 -0.097,17.9L-0.097,2C-0.097,0.843 0.843,-0.097 2,-0.097L17.9,-0.097C19.057,-0.097 19.997,0.843 19.997,2L19.997,17.9C19.997,19.048 19.072,19.982 17.927,19.997L2,19.997ZM18.803,2.081L2.249,18.803L17.9,18.803C18.398,18.803 18.803,18.398 18.803,17.9L18.803,2.081ZM18.072,1.113C18.017,1.102 17.959,1.097 17.9,1.097L2,1.097C1.502,1.097 1.097,1.502 1.097,2L1.097,17.9C1.097,18.008 1.116,18.111 1.151,18.207L18.072,1.113ZM8.589,16.322C8.589,15.577 8.802,14.969 9.227,14.498C9.638,14.072 10.155,13.844 10.778,13.844C11.203,13.844 11.553,13.92 11.842,14.057C12.115,14.194 12.343,14.33 12.541,14.437L13.149,14.832C13.286,14.923 13.423,15.03 13.559,15.136C13.696,15.242 13.848,15.334 14,15.425C14.35,15.638 14.623,15.729 14.851,15.729C15.064,15.729 15.231,15.698 15.368,15.638C15.49,15.562 15.596,15.47 15.687,15.349C15.87,15.09 15.961,14.771 15.961,14.391C16.469,13.994 16.746,14.015 17.147,14.391C17.147,15.151 16.934,15.759 16.508,16.215C16.098,16.641 15.581,16.869 14.958,16.869C14.547,16.869 14.182,16.793 13.879,16.641C13.575,16.504 13.331,16.367 13.149,16.246L12.039,15.516C11.507,15.151 11.082,14.984 10.778,14.984C10.489,14.984 10.246,15.106 10.048,15.364C9.866,15.622 9.774,15.942 9.774,16.322C9.324,16.775 9.064,16.798 8.589,16.322ZM5.467,6.492L3.148,6.492C2.779,6.492 2.48,6.791 2.48,7.16C2.48,7.53 2.779,7.829 3.148,7.829L5.467,7.829C5.836,7.829 6.135,7.53 6.135,7.16C6.135,6.791 5.836,6.492 5.467,6.492ZM9.866,6.492L7.548,6.492C7.179,6.492 6.88,6.791 6.88,7.16C6.88,7.53 7.179,7.829 7.548,7.829L9.866,7.829C10.235,7.829 10.534,7.53 10.534,7.16C10.534,6.791 10.235,6.492 9.866,6.492ZM9.866,3.82L3.148,3.82C2.779,3.82 2.48,4.119 2.48,4.488C2.48,4.857 2.779,5.156 3.148,5.156L9.866,5.156C10.236,5.156 10.535,4.857 10.535,4.488C10.535,4.119 10.236,3.82 9.866,3.82Z" style="fill-rule:nonzero;"/>
    </g>
</svg>
