<?xml version="1.0" encoding="UTF-8" standalone="no"?>
<!DOCTYPE svg PUBLIC "-//W3C//DTD SVG 1.1//EN" "http://www.w3.org/Graphics/SVG/1.1/DTD/svg11.dtd">
<svg width="100%" height="100%" viewBox="0 0 24 24" version="1.1" xmlns="http://www.w3.org/2000/svg" xmlns:xlink="http://www.w3.org/1999/xlink" xml:space="preserve" xmlns:serif="http://www.serif.com/" style="fill-rule:evenodd;clip-rule:evenodd;stroke-linejoin:round;stroke-miterlimit:2;">
    <path d="M20.818,3.856L3.855,20.82C4.077,20.935 4.328,21.001 4.596,21.001L19.404,21.001C20.287,21.001 21,20.285 21,19.405L21,4.598C21,4.329 20.937,4.078 20.818,3.856ZM19.404,2.999L4.596,2.999C3.713,2.999 3,3.715 3,4.595L3,19.402C3,19.671 3.066,19.922 3.182,20.144L20.145,3.18C19.923,3.065 19.672,2.999 19.404,2.999ZM18.636,17.595C18.266,17.979 17.801,18.184 17.241,18.184C16.872,18.184 16.543,18.117 16.271,17.979C15.997,17.855 15.778,17.733 15.613,17.624L14.614,16.966C14.135,16.636 13.754,16.486 13.48,16.486C13.22,16.486 13,16.596 12.821,16.83C12.657,17.061 12.576,17.349 12.576,17.693C12.172,18.1 11.938,18.12 11.511,17.693C11.511,17.023 11.701,16.475 12.085,16.05C12.455,15.666 12.92,15.461 13.48,15.461C13.864,15.461 14.178,15.528 14.438,15.652C14.683,15.776 14.888,15.897 15.067,15.993L15.613,16.348C15.737,16.429 15.858,16.527 15.983,16.622C16.107,16.717 16.242,16.801 16.378,16.882C16.693,17.072 16.938,17.156 17.143,17.156C17.334,17.156 17.484,17.127 17.608,17.075C17.718,17.006 17.813,16.925 17.894,16.815C18.058,16.582 18.139,16.296 18.139,15.952C18.595,15.594 18.846,15.614 19.207,15.952C19.21,16.636 19.02,17.185 18.636,17.595ZM7.25,9.324L5.162,9.324C4.83,9.324 4.562,9.055 4.562,8.72C4.562,8.388 4.83,8.12 5.162,8.12L7.25,8.12C7.582,8.12 7.853,8.388 7.853,8.72C7.853,9.052 7.584,9.324 7.25,9.324ZM11.21,9.324L9.123,9.324C8.791,9.324 8.52,9.055 8.52,8.72C8.52,8.388 8.788,8.12 9.123,8.12L11.21,8.12C11.542,8.12 11.811,8.388 11.811,8.72C11.811,9.052 11.542,9.324 11.21,9.324ZM11.21,6.916L5.165,6.916C4.833,6.916 4.565,6.648 4.565,6.313C4.565,5.981 4.833,5.712 5.165,5.712L11.213,5.712C11.545,5.712 11.817,5.981 11.817,6.313C11.814,6.648 11.542,6.916 11.21,6.916Z" style="fill-rule:nonzero;"/>
</svg>
