<?xml version="1.0" encoding="UTF-8" standalone="no"?>
<!DOCTYPE svg PUBLIC "-//W3C//DTD SVG 1.1//EN" "http://www.w3.org/Graphics/SVG/1.1/DTD/svg11.dtd">
<svg width="100%" height="100%" viewBox="0 0 24 24" version="1.1" xmlns="http://www.w3.org/2000/svg" xmlns:xlink="http://www.w3.org/1999/xlink" xml:space="preserve" xmlns:serif="http://www.serif.com/" style="fill-rule:evenodd;clip-rule:evenodd;stroke-linejoin:round;stroke-miterlimit:2;">
    <g transform="matrix(1.4857,0,0,1.4857,1.86378,1.23338)">
        <path d="M9.073,13.971C6.083,13.978 3.081,13.984 0.114,13.964L0.114,0.516L0.84,0.516L0.84,13.27L13.531,13.27L13.531,13.964C12.052,13.964 10.564,13.968 9.073,13.971ZM10.836,3.868C10.836,3.288 11.307,2.816 11.887,2.816C12.468,2.816 12.939,3.288 12.939,3.868C12.939,4.449 12.468,4.92 11.887,4.92C11.865,4.92 11.844,4.914 11.823,4.908C11.807,4.903 11.791,4.899 11.773,4.897L9.699,7.662C9.753,7.789 9.784,7.929 9.784,8.075C9.784,8.656 9.313,9.127 8.732,9.127C8.152,9.127 7.68,8.656 7.68,8.075C7.68,8.063 7.684,8.052 7.687,8.041C7.689,8.032 7.692,8.024 7.693,8.014L6.034,6.909C5.894,6.977 5.743,7.024 5.577,7.024C5.554,7.024 5.533,7.018 5.512,7.012C5.496,7.007 5.48,7.002 5.462,7.001L3.388,9.766C3.443,9.893 3.473,10.032 3.473,10.179C3.473,10.76 3.002,11.231 2.421,11.231C1.841,11.231 1.369,10.76 1.369,10.179C1.369,9.598 1.841,9.127 2.421,9.127C2.444,9.127 2.465,9.133 2.486,9.139C2.502,9.144 2.518,9.149 2.536,9.15L4.61,6.385C4.555,6.258 4.525,6.118 4.525,5.972C4.525,5.391 4.996,4.92 5.577,4.92C6.157,4.92 6.629,5.391 6.629,5.972C6.629,5.984 6.625,5.995 6.622,6.006C6.619,6.015 6.617,6.024 6.616,6.033L8.275,7.138C8.414,7.07 8.566,7.024 8.732,7.024C8.755,7.024 8.776,7.03 8.796,7.036C8.813,7.04 8.829,7.045 8.847,7.047L10.921,4.282C10.866,4.154 10.836,4.015 10.836,3.868Z"/>
    </g>
</svg>
