<?xml version="1.0" encoding="UTF-8" standalone="no"?>
<!DOCTYPE svg PUBLIC "-//W3C//DTD SVG 1.1//EN" "http://www.w3.org/Graphics/SVG/1.1/DTD/svg11.dtd">
<svg width="100%" height="100%" viewBox="0 0 24 24" version="1.1" xmlns="http://www.w3.org/2000/svg" xmlns:xlink="http://www.w3.org/1999/xlink" xml:space="preserve" xmlns:serif="http://www.serif.com/" style="fill-rule:evenodd;clip-rule:evenodd;stroke-linejoin:round;stroke-miterlimit:2;">
    <g transform="matrix(0.8,-1.22514e-15,1.22514e-15,0.8,2.91416,2)">
        <path d="M20.33,4.769C18.998,4.769 17.945,5.843 17.945,7.154C17.945,7.989 18.382,8.724 19.038,9.161C19.038,9.181 19.018,9.201 19.018,9.221L16.793,15.183C16.316,14.964 15.779,14.825 15.223,14.825C14.487,14.825 13.812,15.044 13.235,15.401C13.215,15.362 13.195,15.342 13.156,15.322L6.618,9.618C7.174,8.963 7.532,8.108 7.532,7.174C7.532,6.459 7.333,5.783 6.975,5.207L10.135,3.855C10.215,3.816 10.294,3.756 10.334,3.696C10.771,4.352 11.487,4.769 12.321,4.769C13.653,4.769 14.706,3.696 14.706,2.385C14.706,1.073 13.633,0 12.321,0C11.009,0 9.936,1.073 9.936,2.385C9.936,2.564 9.956,2.742 9.996,2.921C9.917,2.901 9.817,2.921 9.738,2.961L6.518,4.332C6.459,4.352 6.399,4.412 6.339,4.452C5.664,3.816 4.75,3.418 3.756,3.418C1.669,3.418 0,5.107 0,7.174C0,9.241 1.689,10.93 3.756,10.93C4.551,10.93 5.266,10.692 5.882,10.274C5.902,10.294 5.922,10.314 5.942,10.334L12.44,16.037C11.824,16.713 11.427,17.607 11.427,18.601C11.427,19.038 11.506,19.456 11.646,19.833L6.518,21.463C6.498,21.463 6.459,21.483 6.439,21.502C6.041,20.747 5.246,20.231 4.332,20.231C3.001,20.231 1.948,21.304 1.948,22.615C1.948,23.927 3.021,25 4.332,25C5.644,25 6.717,23.927 6.717,22.615L6.717,22.417C6.757,22.417 6.797,22.417 6.816,22.397L11.963,20.767C12.003,20.747 12.043,20.727 12.083,20.708C12.758,21.701 13.891,22.357 15.203,22.357C17.289,22.357 18.959,20.668 18.959,18.601C18.959,17.448 18.442,16.415 17.607,15.719C17.627,15.68 17.647,15.64 17.667,15.6L19.913,9.579C19.913,9.559 19.913,9.539 19.932,9.539C20.052,9.559 20.191,9.579 20.33,9.579C21.661,9.579 22.715,8.506 22.715,7.194C22.715,5.882 21.661,4.769 20.33,4.769Z" style="fill-rule:nonzero;"/>
    </g>
</svg>
