<?xml version="1.0" encoding="UTF-8" standalone="no"?>
<!DOCTYPE svg PUBLIC "-//W3C//DTD SVG 1.1//EN" "http://www.w3.org/Graphics/SVG/1.1/DTD/svg11.dtd">
<svg width="100%" height="100%" viewBox="0 0 20 20" version="1.1" xmlns="http://www.w3.org/2000/svg" xmlns:xlink="http://www.w3.org/1999/xlink" xml:space="preserve" xmlns:serif="http://www.serif.com/" style="fill-rule:evenodd;clip-rule:evenodd;stroke-linejoin:round;stroke-miterlimit:2;">
    <g transform="matrix(0.37037,0,0,0.37037,0,4.44444)">
        <path d="M54,30L38.147,30L35.67,17.885L48.551,17.885L54,30ZM35.174,15.577L33.688,6.923L43.596,6.923L47.56,15.577L35.174,15.577ZM33.688,5.192L32.697,0L40.129,0L42.606,5.192L33.688,5.192ZM36.165,30L17.835,30L19.817,17.885L34.184,17.885L36.165,30ZM20.312,15.577L21.303,6.923L32.697,6.923L33.688,15.577L20.312,15.577ZM21.798,5.192L22.789,0L31.211,0L32.202,5.192L21.798,5.192ZM15.853,30L0,30L5.45,17.885L18.33,17.885L15.853,30ZM6.44,15.577L10.404,6.923L20.312,6.923L18.826,15.577L6.44,15.577ZM11.395,5.192L13.872,0L21.303,0L20.312,5.192L11.395,5.192Z"/>
    </g>
</svg>
