<?xml version="1.0" encoding="UTF-8" standalone="no"?>
<!DOCTYPE svg PUBLIC "-//W3C//DTD SVG 1.1//EN" "http://www.w3.org/Graphics/SVG/1.1/DTD/svg11.dtd">
<svg width="100%" height="100%" viewBox="0 0 24 24" version="1.1" xmlns="http://www.w3.org/2000/svg" xmlns:xlink="http://www.w3.org/1999/xlink" xml:space="preserve" xmlns:serif="http://www.serif.com/" style="fill-rule:evenodd;clip-rule:evenodd;stroke-linejoin:round;stroke-miterlimit:2;">
    <g transform="matrix(0.0147252,0,0,0.0147252,1.9795,1.96666)">
        <path d="M636.988,2.264L635.142,5.214C632.494,9.395 629.706,13.855 627.058,18.176L618.974,31.417C616.326,35.877 613.538,40.477 610.751,45.076L606.709,52.045L602.667,59.153C591.935,78.109 581.342,98.179 572.004,119.225C562.665,140.271 554.581,162.293 547.613,184.454C540.504,206.754 535.347,229.194 530.748,251.773C528.657,262.924 526.566,274.353 525.033,285.503L522.664,302.368L520.852,319.093L520.016,327.456C519.598,330.243 519.319,333.031 519.179,335.818L517.925,352.544C516.949,363.694 516.671,374.844 516.252,385.994L515.974,394.357L515.974,419.863C515.974,425.578 516.252,431.292 516.392,437.007C516.531,442.721 516.671,448.436 516.949,454.15L518.204,471.433L518.901,480.075C519.179,483.001 519.598,485.928 519.876,488.855L521.828,506.278C522.664,512.131 523.639,517.985 524.476,523.839C524.894,526.766 525.312,529.693 525.87,532.62L529.215,550.182L530.051,554.502L531.027,558.823L535.068,576.385L539.668,593.807C546.079,616.944 553.745,639.523 562.108,660.848C570.47,682.173 579.391,702.382 587.753,721.059L599.879,748.238L605.594,761.2C606.569,763.43 607.406,765.521 608.242,767.611L610.89,773.883C612.702,778.065 614.235,782.107 615.908,786.288C616.605,788.379 617.58,790.33 618.277,792.42L620.507,798.553L622.877,804.686C623.573,806.776 624.27,808.728 624.967,810.818C626.222,814.86 627.755,818.902 629.009,822.944C634.445,839.112 638.626,855.559 642.529,872.423L645.316,885.107L647.686,898.069L648.94,904.48L649.916,911.031L652.007,924.272L653.679,937.652C654.237,942.112 654.934,946.572 655.352,951.172L656.745,964.831C657.024,967.061 657.303,969.291 657.442,971.661L658,978.629C658.697,987.828 659.533,997.167 659.951,1006.5L660.648,1020.44C660.787,1022.81 660.927,1025.04 660.927,1027.41L661.066,1034.38L661.484,1048.32L661.484,1061.98C661.763,1071.18 661.345,1080.24 661.206,1089.3C660.509,1107.28 659.533,1125.26 657.442,1142.96C655.352,1160.8 652.843,1178.36 649.08,1196.2C645.316,1214.04 640.856,1232.02 635.56,1250.84L633.609,1257.94L631.518,1265.05L627.337,1279.55L622.877,1294.32C621.343,1299.34 619.95,1304.22 618.416,1309.37C613.66,1325.91 608.904,1342.99 604.82,1360.48L127.39,1360.48L127.39,611.911C127.39,225.712 375.721,22.494 636.988,2.264ZM756.62,5.754C1005.6,39.799 1233.61,241.851 1233.61,611.911L1233.61,1360.48L724.717,1360.48C725.75,1358.83 726.787,1357.17 727.828,1355.51L735.912,1342.55L744.135,1329.3C746.784,1324.84 749.571,1320.25 752.359,1315.64L756.401,1308.68L760.443,1301.57C771.314,1282.61 781.767,1262.54 791.106,1241.5C800.444,1220.45 808.528,1198.43 815.497,1176.27C822.605,1154.11 827.762,1131.53 832.362,1108.95L835.428,1092.08C836.543,1086.37 837.24,1080.79 838.076,1075.22L840.446,1058.35C841.142,1052.78 841.7,1047.2 842.257,1041.63L843.094,1033.27C843.512,1030.48 843.791,1027.69 843.93,1024.9L845.184,1008.18C846.16,997.027 846.439,985.877 846.857,974.727L847.136,966.364L847.136,940.858C847.136,935.143 846.857,929.429 846.718,923.714C846.439,918 846.299,912.286 846.021,906.571L844.766,889.288L844.069,880.647C843.791,877.72 843.372,874.793 843.094,871.866L841.142,854.444L838.494,836.882C834.87,813.467 829.992,789.912 823.441,766.914L822.326,762.594L821.072,758.273L818.424,749.771C817.588,746.983 816.751,744.056 815.776,741.269L812.988,732.906L810.061,724.543C809.086,721.756 807.97,719.108 806.995,716.32C804.904,710.884 802.953,705.309 800.862,700.013L797.657,692.068C796.541,689.42 795.566,686.772 794.451,684.263C792.36,679.106 790.269,673.949 788.039,668.932L781.489,654.158L775.077,639.802C766.715,621.125 758.909,603.842 751.941,587.117C744.972,570.531 738.978,554.363 733.682,538.195C728.246,522.027 724.065,505.581 720.162,488.716L717.375,476.033L715.005,463.07L713.751,456.52L712.775,449.969L710.685,436.728L709.012,423.348C708.455,418.888 707.758,414.428 707.34,409.828L705.946,396.169C705.667,393.939 705.388,391.709 705.249,389.339L704.691,382.371C703.995,373.172 703.158,363.833 702.74,354.495L702.043,340.557C701.904,338.188 701.764,335.958 701.764,333.588L701.625,326.619L701.207,312.682L701.207,298.883C700.928,289.684 701.486,280.625 701.486,271.565C702.322,253.585 703.158,235.606 705.249,217.905C707.34,200.064 709.848,182.503 713.612,164.662C717.375,146.961 721.835,128.842 727.131,110.026L729.083,102.918L731.173,95.81C732.428,91.071 733.821,86.192 735.355,81.314L739.815,66.54C741.348,61.523 742.742,56.644 744.275,51.487C748.553,36.616 752.831,21.373 756.62,5.754Z"/>
    </g>
</svg>
