<?xml version="1.0" encoding="UTF-8" standalone="no"?>
<!DOCTYPE svg PUBLIC "-//W3C//DTD SVG 1.1//EN" "http://www.w3.org/Graphics/SVG/1.1/DTD/svg11.dtd">
<svg width="100%" height="100%" viewBox="0 0 24 24" version="1.1" xmlns="http://www.w3.org/2000/svg" xmlns:xlink="http://www.w3.org/1999/xlink" xml:space="preserve" xmlns:serif="http://www.serif.com/" style="fill-rule:evenodd;clip-rule:evenodd;stroke-linejoin:round;stroke-miterlimit:2;">
    <g transform="matrix(0.666668,0,0,0.666668,2.08097,2.33328)">
        <path d="M19.782,26.325C19.782,27.203 19.065,28 18.108,28C17.231,28 16.513,27.203 16.513,26.325L16.513,11.813C16.513,10.935 17.231,10.138 18.188,10.138C19.065,10.138 19.862,10.856 19.862,11.813L19.862,26.325L19.782,26.325ZM14.998,24.571C14.998,25.448 14.28,26.246 13.323,26.246C12.366,26.246 11.728,25.528 11.728,24.571L11.728,13.647C11.728,12.769 12.446,11.972 13.403,11.972C14.36,11.972 15.078,12.69 15.078,13.647L15.078,24.571L14.998,24.571ZM25.045,25.608C24.726,25.608 24.487,25.528 24.168,25.448L22.175,24.81C21.856,24.731 21.616,24.332 21.776,24.013C21.856,23.694 22.254,23.455 22.573,23.614L24.647,24.252C25.045,24.412 25.524,24.332 25.922,24.013C26.321,23.774 26.481,23.295 26.481,22.897L26.481,9.58C26.481,8.942 26.082,8.384 25.524,8.224L5.987,2.323C5.588,2.164 5.11,2.244 4.711,2.483C4.392,2.802 4.153,3.2 4.153,3.679L4.153,12.849C4.153,13.248 3.834,13.487 3.515,13.487C3.116,13.487 2.877,13.168 2.877,12.849L2.877,3.679C2.877,2.802 3.276,2.004 3.994,1.526C4.711,0.968 5.588,0.888 6.386,1.127L25.843,7.028C26.959,7.347 27.757,8.463 27.757,9.659L27.757,22.976C27.757,23.853 27.358,24.651 26.64,25.209C26.162,25.369 25.603,25.608 25.045,25.608ZM10.213,22.657C10.213,23.535 9.496,24.332 8.539,24.332C7.582,24.332 6.864,23.614 6.864,22.657L6.864,15.481C6.864,14.603 7.582,13.806 8.539,13.806C9.496,13.806 10.213,14.524 10.213,15.481L10.213,22.657ZM5.349,21.063C5.349,21.94 4.631,22.737 3.675,22.737C2.718,22.737 2,22.019 2,21.063L2,17.155C2,16.278 2.718,15.481 3.675,15.481C4.631,15.481 5.349,16.278 5.349,17.155L5.349,21.063Z" style="fill-rule:nonzero;"/>
    </g>
</svg>
