<?xml version="1.0" encoding="UTF-8" standalone="no"?>
<!DOCTYPE svg PUBLIC "-//W3C//DTD SVG 1.1//EN" "http://www.w3.org/Graphics/SVG/1.1/DTD/svg11.dtd">
<svg width="100%" height="100%" viewBox="0 0 1361 1361" version="1.1" xmlns="http://www.w3.org/2000/svg" xmlns:xlink="http://www.w3.org/1999/xlink" xml:space="preserve" xmlns:serif="http://www.serif.com/" style="fill-rule:evenodd;clip-rule:evenodd;stroke-linejoin:round;stroke-miterlimit:2;">
    <g transform="matrix(0.734754,0,0,0.734754,180.5,180.5)">
        <path d="M936.796,1000.45L784.934,1152.31C767.724,1169.52 738.476,1169.52 721.265,1152.31C721.04,1152.09 720.928,1151.97 720.703,1151.75C706.979,1138.47 693.705,1124.75 680.206,1111.25L388.069,819.114C370.183,801.34 371.533,773.443 388.069,755.444C404.492,737.559 435.09,738.796 451.739,755.444C451.964,755.669 452.076,755.782 452.301,756.007C466.025,769.281 479.298,783.005 492.797,796.503L753.1,1056.81L904.961,904.944C922.173,887.733 951.42,887.733 968.631,904.944C968.856,905.169 969.081,905.394 969.306,905.619C984.829,920.692 1000.01,936.329 1015.43,951.74L1271.01,1207.32L1271.01,1067.85C1271.01,1042.65 1291.6,1023.98 1316.01,1022.85C1340.3,1021.73 1361,1044.34 1361,1067.85L1361,1316C1361,1327.21 1356.64,1337.61 1349.57,1345.58C1348.98,1346.3 1348.36,1347.01 1347.73,1347.7C1342.61,1353.27 1336.12,1356.99 1329.11,1358.96C1324.94,1360.29 1320.54,1361 1316.01,1361L1067.85,1361C1042.65,1361 1023.98,1340.41 1022.86,1316C1021.73,1291.71 1044.34,1271.01 1067.85,1271.01L1207.36,1271.01L936.796,1000.45ZM832.201,89.992L692.696,89.992C669.186,89.992 646.576,69.294 647.7,44.996C648.825,20.586 667.499,0 692.696,0L940.85,0C945.379,0 949.783,0.715 953.954,2.038C960.969,4.012 967.456,7.727 972.57,13.295C973.202,13.982 973.811,14.684 974.399,15.402C981.477,23.375 985.845,33.782 985.845,44.996L985.845,293.15C985.845,316.66 965.149,339.271 940.85,338.146C916.443,337.021 895.856,318.347 895.856,293.15L895.856,153.678L640.271,409.26C624.86,424.671 609.674,440.308 594.15,455.381C593.925,455.606 593.7,455.831 593.475,456.056C576.264,473.267 547.017,473.267 529.806,456.056L377.944,304.194L117.641,564.496C104.143,577.995 90.869,591.719 77.145,604.993C76.92,605.218 76.808,605.331 76.583,605.556C59.934,622.204 29.337,623.441 12.913,605.556C-3.623,587.557 -4.973,559.66 12.913,541.886L305.05,249.749C318.549,236.25 331.823,222.526 345.547,209.253C345.772,209.028 345.884,208.915 346.109,208.69C363.32,191.479 392.567,191.479 409.779,208.69L561.641,360.552L832.201,89.992Z" style="fill-rule:nonzero;"/>
    </g>
</svg>
