<?xml version="1.0" encoding="UTF-8" standalone="no"?>
<!DOCTYPE svg PUBLIC "-//W3C//DTD SVG 1.1//EN" "http://www.w3.org/Graphics/SVG/1.1/DTD/svg11.dtd">
<svg width="100%" height="100%" viewBox="0 0 24 24" version="1.1" xmlns="http://www.w3.org/2000/svg" xmlns:xlink="http://www.w3.org/1999/xlink" xml:space="preserve" xmlns:serif="http://www.serif.com/" style="fill-rule:evenodd;clip-rule:evenodd;stroke-linejoin:round;stroke-miterlimit:2;">
    <g id="prediktor" transform="matrix(0.0132256,-2.0254e-17,2.0254e-17,0.0132256,3,3)">
        <path d="M1361,0L0,0L0,1361L1361,1361L1361,0ZM486.798,905.241C475.087,905.241 464.97,893.213 470.057,880.984L544.68,702.956C549.767,690.756 560.703,678.987 578.435,678.987L789.514,679.188C808.123,679.188 812.765,696.604 808.497,707.037L733.989,884.778C693.423,986.287 665.517,1026.34 614.202,1067.23C563.146,1107.88 475.834,1133.66 394.299,1132.53C378.004,1132.53 370.79,1117.56 376.15,1104.85C376.15,1104.85 381.079,1093.69 397.518,1053.71C403.252,1040 415.208,1040.35 419.332,1040.35C471.451,1037.76 506.887,1022.4 535.469,1002.31C564.554,981.875 579.498,953.064 589.658,932.213C593.725,923.878 589.342,905.341 570.244,905.327L486.798,905.241ZM677.419,458.333C663.653,458.333 653.68,442.77 658.767,430.542L733.375,252.528C738.477,240.313 749.398,231.993 767.145,231.993L978.224,231.993C995.712,231.993 1000.08,249.726 997.206,256.609L922.699,434.335C917.41,446.593 909.248,457.816 887.722,457.816L677.419,458.333Z"/>
    </g>
</svg>
