<?xml version="1.0" encoding="UTF-8" standalone="no"?>
<!DOCTYPE svg PUBLIC "-//W3C//DTD SVG 1.1//EN" "http://www.w3.org/Graphics/SVG/1.1/DTD/svg11.dtd">
<svg width="100%" height="100%" viewBox="0 0 24 24" version="1.1" xmlns="http://www.w3.org/2000/svg" xmlns:xlink="http://www.w3.org/1999/xlink" xml:space="preserve" xmlns:serif="http://www.serif.com/" style="fill-rule:evenodd;clip-rule:evenodd;stroke-linejoin:round;stroke-miterlimit:2;">
    <path d="M12,2C17.519,2 22,6.481 22,12C22,17.519 17.519,22 12,22C6.481,22 2,17.519 2,12C2,6.481 6.481,2 12,2ZM14.299,11.202C13.241,10.802 12.091,10.689 11.023,10.278C10.633,10.134 10.17,9.847 10.212,9.374C10.201,8.953 10.592,8.727 10.91,8.542C10.571,7.916 10.212,7.31 9.852,6.714C9.739,6.468 9.421,6.437 9.205,6.561C8.661,6.838 8.178,7.259 7.839,7.762C6.935,9.097 7.254,11.151 8.599,12.075C9.708,12.866 11.085,13.082 12.368,13.421C12.81,13.534 13.251,13.667 13.631,13.924C14.083,14.232 14.155,14.951 13.796,15.362C13.488,15.742 13.005,15.916 12.533,15.978C11.721,16.07 10.869,15.896 10.212,15.403C9.647,14.992 9.328,14.345 9.113,13.698C8.281,13.985 7.449,14.273 6.627,14.602C7.007,15.854 7.798,17.025 8.969,17.662C10.386,18.443 12.101,18.555 13.662,18.186C14.699,17.929 15.716,17.364 16.312,16.44C16.969,15.454 17.041,14.119 16.558,13.041C16.147,12.106 15.234,11.541 14.299,11.202ZM16.682,8.275C16.106,8.584 15.542,8.922 14.997,9.272C14.586,9.508 14.843,10.237 15.305,10.165C15.685,10.103 15.983,9.837 16.312,9.662C16.64,9.446 17.031,9.302 17.298,9.005C17.555,8.614 17.103,8.07 16.682,8.275ZM14.196,8.789C14.412,8.614 14.515,8.347 14.658,8.122C14.884,7.711 15.162,7.331 15.336,6.899C15.48,6.499 14.987,6.129 14.627,6.324C14.289,6.581 14.155,7.022 13.919,7.372C13.755,7.69 13.498,7.978 13.436,8.347C13.405,8.738 13.888,8.953 14.196,8.789ZM11.629,8.029C11.67,8.389 12.142,8.542 12.42,8.337C12.656,8.183 12.605,7.875 12.615,7.629C12.594,7.094 12.635,6.55 12.594,6.006C12.563,5.667 12.122,5.513 11.845,5.677C11.577,5.811 11.608,6.14 11.608,6.386C11.618,6.941 11.588,7.485 11.629,8.029Z"/>
</svg>
