<?xml version="1.0" encoding="UTF-8" standalone="no"?>
<!DOCTYPE svg PUBLIC "-//W3C//DTD SVG 1.1//EN" "http://www.w3.org/Graphics/SVG/1.1/DTD/svg11.dtd">
<svg width="100%" height="100%" viewBox="0 0 24 24" version="1.1" xmlns="http://www.w3.org/2000/svg" xmlns:xlink="http://www.w3.org/1999/xlink" xml:space="preserve" xmlns:serif="http://www.serif.com/" style="fill-rule:evenodd;clip-rule:evenodd;stroke-linejoin:round;stroke-miterlimit:2;">
    <g transform="matrix(0.0147005,0,0,0.0147005,2,-2.16832)">
        <path d="M680.3,368.5C304.5,368.5 0,615.9 0,921.3C0,1053.1 56.9,1173.8 151.5,1268.6C118.3,1402.5 7.2,1521.9 5.8,1523.2C0,1529.3 -1.6,1538.3 1.8,1546.3C5.2,1554.3 12.7,1559.1 21.2,1559.1C197.4,1559.1 329.5,1474.6 394.8,1422.5C481.7,1455.2 578.2,1474.1 680.2,1474.1C1056,1474.1 1360.5,1226.7 1360.5,921.3C1360.5,615.9 1056.1,368.5 680.3,368.5ZM397,614.6L486,691.2C486,691.2 480.9,709 486,714.1L617.5,845.5L593,870L461.6,738.7C457.2,734.5 438.6,738.7 438.6,738.7L361.8,649.9L397,614.6ZM969.4,1191.7L938.7,1222.4C931.4,1229.7 921.4,1233.9 911.1,1233.9C900.8,1233.9 890.8,1229.8 883.5,1222.4L695.2,1034.4L781.8,947.8L969.4,1136.4C976.7,1143.7 980.9,1153.7 980.9,1164C980.9,1174.4 976.7,1184.4 969.4,1191.7ZM852.8,889.3C832.6,889 812.7,884.4 794.3,875.9L451.4,1219.1C441.5,1229 428.1,1234.5 414.1,1234.5C385.2,1234.5 361.4,1210.7 361.4,1181.8C361.4,1167.8 367,1154.4 376.8,1144.5L719.8,802.1C711.3,783.8 706.8,763.8 706.4,743.6C707,663.5 772.7,597.8 852.8,597.2C873,597.5 892.9,602.1 911.3,610.6L828.8,692.3C818.9,702.2 813.4,715.6 813.4,729.6C813.4,758.5 837.2,782.3 866.1,782.3C880.1,782.3 893.5,776.7 903.4,766.9L985.1,684.4C993.8,702.7 998.6,722.6 999.2,742.9C998.6,823 932.9,888.7 852.8,889.3Z" style="fill-rule:nonzero;"/>
    </g>
</svg>
