<?xml version="1.0" encoding="UTF-8" standalone="no"?>
<!DOCTYPE svg PUBLIC "-//W3C//DTD SVG 1.1//EN" "http://www.w3.org/Graphics/SVG/1.1/DTD/svg11.dtd">
<svg width="100%" height="100%" viewBox="0 0 24 24" version="1.1" xmlns="http://www.w3.org/2000/svg" xmlns:xlink="http://www.w3.org/1999/xlink" xml:space="preserve" xmlns:serif="http://www.serif.com/" style="fill-rule:evenodd;clip-rule:evenodd;stroke-linejoin:round;stroke-miterlimit:2;">
    <g transform="matrix(0.384026,0,0,0.384026,0.267199,1.79115)">
        <path d="M44.9,47.496C38.596,56.826 3.686,52.004 1.663,44.31C0.318,39.194 5.03,35.016 4.443,28.433C3.886,21.867 3.345,15.271 6.718,12.048C10.063,8.809 17.294,8.927 23.049,7.08C28.805,5.232 33.103,1.39 37.863,0.678C42.64,-0.064 47.833,2.338 52.274,6.174C56.725,10.057 60.407,15.404 59.562,20.405C58.717,25.405 57.097,31.792 52.879,35.561C48.672,39.376 47.609,43.486 44.9,47.496Z" style="fill-rule:nonzero;"/>
    </g>
</svg>
