<?xml version="1.0" encoding="UTF-8" standalone="no"?>
<!DOCTYPE svg PUBLIC "-//W3C//DTD SVG 1.1//EN" "http://www.w3.org/Graphics/SVG/1.1/DTD/svg11.dtd">
<svg width="100%" height="100%" viewBox="0 0 24 24" version="1.1" xmlns="http://www.w3.org/2000/svg" xmlns:xlink="http://www.w3.org/1999/xlink" xml:space="preserve" xmlns:serif="http://www.serif.com/" style="fill-rule:evenodd;clip-rule:evenodd;stroke-linejoin:round;stroke-miterlimit:2;">
    <path d="M8.05,22L2.274,22L3.001,20.978L8.38,20.978L8.05,22ZM15.264,22L8.736,22L9,20.978L15,20.978L15.264,22ZM21.726,22L15.95,22L15.621,20.978L21,20.978L21.726,22ZM15.414,20.368L14.793,18.079L18.931,18.079L20.586,20.368L15.414,20.368ZM9.207,20.368L9.621,18.079L14.379,18.079L14.793,20.368L9.207,20.368ZM3.414,20.368L5.069,18.079L9.207,18.079L8.586,20.368L3.414,20.368ZM14.793,17.621L14.379,16.248L17.483,16.248L18.517,17.621L14.793,17.621ZM9.828,17.621L10.242,16.248L13.758,16.248L14.172,17.621L9.828,17.621ZM5.483,17.621L6.517,16.248L9.621,16.248L9.207,17.621L5.483,17.621ZM10.951,12.075L10.951,10.603C10.951,10.375 11.015,10.185 11.166,10.032C11.319,9.893 11.508,9.817 11.737,9.817C11.965,9.817 12.155,9.893 12.307,10.032C12.459,10.185 12.535,10.375 12.535,10.603L12.535,12.084C12.655,12.088 12.756,12.126 12.838,12.195C12.941,12.28 12.992,12.383 13.001,12.5C13.01,12.625 12.967,12.734 12.873,12.821L11.929,13.87C11.809,13.98 11.69,13.98 11.578,13.87L10.627,12.821C10.532,12.734 10.489,12.625 10.497,12.5C10.506,12.383 10.557,12.28 10.66,12.195L10.703,12.163C10.79,12.113 10.872,12.083 10.951,12.075ZM13.628,9.513C13.595,9.455 13.569,9.392 13.549,9.323C13.473,9.107 13.498,8.904 13.612,8.727C13.739,8.55 13.903,8.423 14.118,8.36C14.321,8.284 14.524,8.309 14.702,8.423L16.054,9.21C16.11,9.144 16.176,9.098 16.251,9.071C16.377,9.025 16.491,9.031 16.597,9.082C16.71,9.137 16.784,9.229 16.811,9.354L17.248,10.695C17.283,10.854 17.223,10.958 17.073,10.999L15.688,11.299C15.566,11.338 15.45,11.32 15.346,11.251C15.248,11.184 15.186,11.089 15.162,10.957L15.156,10.903C15.156,10.78 15.18,10.677 15.231,10.595L14.017,9.894C13.841,9.792 13.709,9.669 13.628,9.513ZM7.336,9.048C7.399,9.083 7.451,9.123 7.493,9.167L8.772,8.423C8.95,8.309 9.153,8.284 9.368,8.347C9.57,8.398 9.735,8.525 9.861,8.727L9.892,8.784C10,8.972 10.019,9.169 9.96,9.37C9.889,9.578 9.746,9.743 9.532,9.867L8.308,10.573C8.374,10.687 8.396,10.8 8.377,10.912C8.353,11.045 8.291,11.14 8.193,11.206C8.089,11.276 7.973,11.293 7.851,11.255L6.471,10.963C6.316,10.914 6.256,10.81 6.295,10.658L6.727,9.31C6.755,9.185 6.829,9.093 6.942,9.038C7.048,8.986 7.161,8.98 7.288,9.026L7.336,9.048ZM13.612,6.549C13.776,6.814 14.018,6.941 14.309,6.941C14.448,6.941 14.575,6.903 14.702,6.827L16.336,5.902C16.538,5.801 16.665,5.649 16.715,5.433C16.754,5.218 16.741,5.015 16.64,4.813C16.525,4.635 16.361,4.521 16.146,4.458C15.93,4.394 15.728,4.42 15.55,4.521L13.916,5.459C13.713,5.573 13.586,5.738 13.536,5.952C13.473,6.168 13.498,6.371 13.612,6.549ZM8.772,6.84C8.937,6.915 9.064,6.941 9.165,6.941C9.456,6.941 9.697,6.814 9.861,6.549C9.976,6.371 10.001,6.168 9.925,5.952C9.861,5.738 9.735,5.573 9.558,5.459L7.923,4.521C7.467,4.293 7.1,4.382 6.833,4.813C6.732,5.015 6.72,5.218 6.77,5.433C6.833,5.649 6.948,5.801 7.138,5.902L8.772,6.84ZM11.737,5.433C11.965,5.433 12.155,5.357 12.307,5.218C12.459,5.066 12.535,4.876 12.535,4.648L12.535,2.786C12.535,2.558 12.459,2.368 12.307,2.216C12.155,2.076 11.965,2 11.737,2C11.508,2 11.319,2.076 11.166,2.216C11.015,2.368 10.951,2.558 10.951,2.786L10.951,4.648C10.951,4.863 11.015,5.041 11.166,5.205C11.319,5.357 11.508,5.433 11.737,5.433Z"/>
</svg>
