<?xml version="1.0" encoding="UTF-8" standalone="no"?>
<!DOCTYPE svg PUBLIC "-//W3C//DTD SVG 1.1//EN" "http://www.w3.org/Graphics/SVG/1.1/DTD/svg11.dtd">
<svg width="100%" height="100%" viewBox="0 0 24 24" version="1.1" xmlns="http://www.w3.org/2000/svg" xmlns:xlink="http://www.w3.org/1999/xlink" xml:space="preserve" xmlns:serif="http://www.serif.com/" style="fill-rule:evenodd;clip-rule:evenodd;stroke-linejoin:round;stroke-miterlimit:2;">
    <g transform="matrix(0.0435662,0,0,0.0435662,-1.33281,-5.2522)">
        <path d="M234.36,231.984L234.36,179.28C234.36,172.224 240.12,166.464 247.176,166.464L365.256,166.464C372.312,166.464 378.072,172.152 378.072,179.28L378.072,231.984L407.88,231.984L407.88,270.36L378.072,270.36L378.072,283.176L407.88,283.176L407.88,321.552L378.072,321.552L378.072,334.368L407.88,334.368L407.88,372.744L378.072,372.744L378.072,385.56L407.88,385.56L407.88,423.936L378.072,423.936L378.072,436.752L407.88,436.752L407.88,475.128L378.072,475.128L378.072,487.944L407.88,487.944L407.88,526.32L378.072,526.32L378.072,539.136L407.88,539.136L407.88,577.512L378.072,577.512L378.072,599.976L467.64,599.976L467.64,577.512L434.664,577.512L434.664,539.136L467.64,539.136L467.64,526.32L434.664,526.32L434.664,487.944L467.64,487.944L467.64,475.128L434.664,475.128L434.664,436.752L467.64,436.752L467.64,423.936L434.664,423.936L434.664,385.56L467.64,385.56L467.64,372.744L434.664,372.744L434.664,334.368L467.64,334.368L467.64,321.552L434.664,321.552L434.664,283.176L467.64,283.176L467.64,270.36L434.664,270.36L434.664,231.984L467.64,231.984L467.64,179.28C467.64,172.224 473.256,166.464 480.456,166.464C487.512,166.464 493.272,172.152 493.272,179.28L493.272,231.984L523.224,231.984L523.224,270.36L493.272,270.36L493.272,283.176L523.224,283.176L523.224,321.552L493.272,321.552L493.272,334.368L523.224,334.368L523.224,372.744L493.272,372.744L493.272,385.56L523.224,385.56L523.224,423.936L493.272,423.936L493.272,436.752L523.224,436.752L523.224,475.128L493.272,475.128L493.272,487.944L523.224,487.944L523.224,526.32L493.272,526.32L493.272,539.136L523.224,539.136L523.224,577.512L493.272,577.512L493.272,612.72C493.272,619.776 487.512,625.536 480.456,625.536L365.328,625.536C358.128,625.536 352.512,619.776 352.512,612.72L352.512,577.512L319.32,577.512L319.32,539.136L352.512,539.136L352.512,526.32L319.32,526.32L319.32,487.944L352.512,487.944L352.512,475.128L319.32,475.128L319.32,436.752L352.512,436.752L352.512,423.936L319.32,423.936L319.32,385.56L352.512,385.56L352.512,372.744L319.32,372.744L319.32,334.368L352.512,334.368L352.512,321.552L319.32,321.552L319.32,283.176L352.512,283.176L352.512,270.36L319.32,270.36L319.32,231.984L352.512,231.984L352.512,192.096L259.992,192.096L259.992,231.984L292.608,231.984L292.608,270.36L259.992,270.36L259.992,283.176L292.608,283.176L292.608,321.552L259.992,321.552L259.992,334.368L292.608,334.368L292.608,372.744L259.992,372.744L259.992,385.56L292.608,385.56L292.608,423.936L259.992,423.936L259.992,436.752L292.608,436.752L292.608,475.128L259.992,475.128L259.992,487.944L292.608,487.944L292.608,526.32L259.992,526.32L259.992,539.136L292.608,539.136L292.608,577.512L259.992,577.512L259.992,612.72C259.992,619.776 254.232,625.536 247.176,625.536L130.464,625.536C123.408,625.536 117.648,619.776 117.648,612.72L117.648,577.512L88.848,577.512L88.848,539.136L117.648,539.136L117.648,526.32L88.848,526.32L88.848,487.944L117.648,487.944L117.648,475.128L88.848,475.128L88.848,436.752L117.648,436.752L117.648,423.936L88.848,423.936L88.848,385.56L117.648,385.56L117.648,372.744L88.848,372.744L88.848,334.368L117.648,334.368L117.648,321.552L88.848,321.552L88.848,283.176L117.648,283.176L117.648,270.36L88.848,270.36L88.848,231.984L117.648,231.984L117.648,179.28C117.648,172.224 123.408,166.464 130.464,166.464C137.52,166.464 143.28,172.152 143.28,179.28L143.28,231.984L177.408,231.984L177.408,270.36L143.28,270.36L143.28,283.176L177.408,283.176L177.408,321.552L143.28,321.552L143.28,334.368L177.408,334.368L177.408,372.744L143.28,372.744L143.28,385.56L177.408,385.56L177.408,423.936L143.28,423.936L143.28,436.752L177.408,436.752L177.408,475.128L143.28,475.128L143.28,487.944L177.408,487.944L177.408,526.32L143.28,526.32L143.28,539.136L177.408,539.136L177.408,577.512L143.28,577.512L143.28,599.976L234.36,599.976L234.36,577.512L204.048,577.512L204.048,539.136L234.36,539.136L234.36,526.32L204.048,526.32L204.048,487.944L234.36,487.944L234.36,475.128L204.048,475.128L204.048,436.752L234.36,436.752L234.36,423.936L204.048,423.936L204.048,385.56L234.36,385.56L234.36,372.744L204.048,372.744L204.048,334.368L234.36,334.368L234.36,321.552L204.048,321.552L204.048,283.176L234.36,283.176L234.36,270.36L204.048,270.36L204.048,231.984L234.36,231.984Z"/>
    </g>
</svg>
