<?xml version="1.0" encoding="UTF-8" standalone="no"?>
<!DOCTYPE svg PUBLIC "-//W3C//DTD SVG 1.1//EN" "http://www.w3.org/Graphics/SVG/1.1/DTD/svg11.dtd">
<svg width="100%" height="100%" viewBox="0 0 24 24" version="1.1" xmlns="http://www.w3.org/2000/svg" xmlns:xlink="http://www.w3.org/1999/xlink" xml:space="preserve" xmlns:serif="http://www.serif.com/" style="fill-rule:evenodd;clip-rule:evenodd;stroke-linejoin:round;stroke-miterlimit:2;">
    <g id="weather" transform="matrix(0.586665,-8.98435e-16,8.98435e-16,0.586665,2,4.66669)">
        <path d="M32.955,20.455C31.364,20.455 30.227,20.796 29.432,21.25C29.546,20.568 29.546,20 29.546,19.318C29.546,12.386 23.977,6.818 17.046,6.818C10.114,6.818 4.545,12.386 4.545,19.318C4.545,20 4.545,20.568 4.659,21.25C3.864,20.796 2.727,20.455 1.136,20.455C0.455,20.455 0,20.909 0,21.591C0,22.273 0.455,22.727 1.136,22.727C2.841,22.727 3.636,23.182 4.545,23.75C5,23.977 5.455,24.205 5.909,24.432C6.932,24.773 7.955,25 9.091,25C11.364,25 12.614,24.318 13.636,23.75C14.546,23.182 15.341,22.727 17.046,22.727C18.75,22.727 19.546,23.182 20.455,23.75C21.477,24.318 22.727,25 25,25C26.136,25 27.159,24.773 28.068,24.432C28.636,24.205 29.091,23.977 29.546,23.636C30.455,23.068 31.25,22.614 32.955,22.614C33.636,22.614 34.091,22.159 34.091,21.477C34.091,20.796 33.636,20.455 32.955,20.455ZM6.023,7.614C6.25,7.841 6.477,7.955 6.818,7.955C7.159,7.955 7.386,7.841 7.614,7.614C8.068,7.159 8.068,6.477 7.614,6.023L5.341,3.75C4.886,3.295 4.205,3.295 3.75,3.75C3.295,4.205 3.295,4.886 3.75,5.341L6.023,7.614ZM27.273,7.955C27.614,7.955 27.841,7.841 28.068,7.614L30.341,5.341C30.796,4.886 30.796,4.205 30.341,3.75C29.886,3.295 29.205,3.295 28.75,3.75L26.477,6.023C26.023,6.477 26.023,7.159 26.477,7.614C26.705,7.841 26.932,7.955 27.273,7.955ZM17.046,5.682C17.727,5.682 18.182,5.227 18.182,4.545L18.182,1.136C18.182,0.455 17.727,0 17.046,0C16.364,0 15.909,0.455 15.909,1.136L15.909,4.545C15.909,5.227 16.364,5.682 17.046,5.682Z" style="fill-rule:nonzero;"/>
    </g>
</svg>
