<?xml version="1.0" encoding="UTF-8" standalone="no"?>
<!DOCTYPE svg PUBLIC "-//W3C//DTD SVG 1.1//EN" "http://www.w3.org/Graphics/SVG/1.1/DTD/svg11.dtd">
<svg width="100%" height="100%" viewBox="0 0 24 15" version="1.1" xmlns="http://www.w3.org/2000/svg" xmlns:xlink="http://www.w3.org/1999/xlink" xml:space="preserve" xmlns:serif="http://www.serif.com/" style="fill-rule:evenodd;clip-rule:evenodd;stroke-linejoin:round;stroke-miterlimit:2;">
    <g transform="matrix(1,0,0,1,1.8,-2.8)">
        <path d="M0.032,15.4C0.011,15.136 0,14.869 0,14.6C0,9.081 4.481,4.6 10,4.6C15.519,4.6 20,9.081 20,14.6C20,14.869 19.989,15.136 19.968,15.4L18.764,15.4C18.788,15.136 18.8,14.87 18.8,14.6C18.8,9.743 14.857,5.8 10,5.8C5.143,5.8 1.2,9.743 1.2,14.6C1.2,14.87 1.212,15.136 1.236,15.4L0.032,15.4Z" style="fill:rgb(39,51,59);"/>
    </g>
    <g transform="matrix(0.4,0,0,0.4,0.210671,0.383541)">
    <!--g transform="matrix(0.4,0,0,0.4,7.02009,-2.60235)"-->
        <path d="M12,10.25C10.758,10.25 9.75,11.281 9.75,12.5C9.75,13.742 10.758,14.75 12,14.75C13.219,14.75 14.25,13.742 14.25,12.5C14.25,11.281 13.219,10.25 12,10.25ZM17.766,12.148L15.539,11.047L16.336,8.68C16.43,8.375 16.125,8.07 15.82,8.164L13.453,8.961L12.352,6.734C12.211,6.43 11.766,6.43 11.625,6.734L10.524,8.961L8.156,8.164C7.852,8.07 7.547,8.375 7.641,8.68L8.438,11.047L6.211,12.148C5.906,12.289 5.906,12.734 6.211,12.875L8.438,13.977L7.641,16.344C7.547,16.648 7.852,16.953 8.156,16.859L10.524,16.063L11.625,18.289C11.766,18.594 12.211,18.594 12.352,18.289L13.453,16.063L15.82,16.859C16.125,16.953 16.43,16.648 16.336,16.344L15.539,13.977L17.766,12.875C18.07,12.734 18.07,12.289 17.766,12.148ZM14.109,14.633C12.938,15.805 11.039,15.805 9.867,14.633C8.695,13.461 8.695,11.563 9.867,10.391C11.039,9.219 12.938,9.219 14.109,10.391C15.281,11.563 15.281,13.461 14.109,14.633Z" style="fill:rgb(252,181,96);fill-rule:nonzero;"/>
    </g>
</svg>
