<?xml version="1.0" encoding="UTF-8" standalone="no"?><!DOCTYPE svg PUBLIC "-//W3C//DTD SVG 1.1//EN" "http://www.w3.org/Graphics/SVG/1.1/DTD/svg11.dtd"><svg width="100%" height="100%" viewBox="0 0 20 20" version="1.1" xmlns="http://www.w3.org/2000/svg" xmlns:xlink="http://www.w3.org/1999/xlink" xml:space="preserve" xmlns:serif="http://www.serif.com/" style="fill-rule:evenodd;clip-rule:evenodd;stroke-linejoin:round;stroke-miterlimit:2;"><g><path d="M10.152,2.667l7.181,0c1.473,0 2.667,1.194 2.667,2.666l0,11.334c0,1.472 -1.194,2.666 -2.667,2.666l-14.666,0c-1.473,0 -2.667,-1.194 -2.667,-2.666l0,-14c0,-0.081 0,-0.161 0,-0.24c0,-0.459 0.227,-0.897 0.545,-1.215c0.318,-0.318 0.756,-0.545 1.215,-0.545l6.392,0l2,2Z" style="fill:#fff;fill-rule:nonzero;"/><path d="M17.197,6.807c-0.01,-0.101 -0.027,-0.216 -0.06,-0.344c-0.033,-0.127 -0.082,-0.267 -0.155,-0.412c-0.072,-0.146 -0.166,-0.295 -0.288,-0.442c-0.048,-0.058 -0.101,-0.114 -0.157,-0.168c0.084,-0.335 -0.102,-0.625 -0.102,-0.625c-0.321,-0.02 -0.526,0.101 -0.601,0.155c-0.014,-0.005 -0.025,-0.011 -0.038,-0.016c-0.055,-0.022 -0.111,-0.043 -0.17,-0.061c-0.058,-0.019 -0.117,-0.035 -0.178,-0.05c-0.061,-0.015 -0.122,-0.026 -0.185,-0.036c-0.011,-0.002 -0.021,-0.003 -0.033,-0.005c-0.14,-0.448 -0.542,-0.636 -0.542,-0.636c-0.45,0.285 -0.534,0.684 -0.534,0.684c0,0 -0.001,0.008 -0.005,0.023c-0.025,0.006 -0.049,0.015 -0.074,0.021c-0.035,0.01 -0.069,0.023 -0.102,0.036c-0.035,0.014 -0.068,0.027 -0.102,0.042c-0.068,0.029 -0.135,0.062 -0.201,0.099c-0.065,0.036 -0.127,0.075 -0.188,0.117c-0.009,-0.004 -0.017,-0.007 -0.017,-0.007c-0.623,-0.237 -1.175,0.048 -1.175,0.048c-0.051,0.662 0.249,1.079 0.308,1.155c-0.015,0.041 -0.028,0.083 -0.041,0.124c-0.046,0.15 -0.081,0.303 -0.102,0.463c-0.003,0.023 -0.007,0.046 -0.008,0.069c-0.577,0.285 -0.747,0.867 -0.747,0.867c0.48,0.552 1.04,0.587 1.04,0.587l0.002,-0.002c0.071,0.127 0.153,0.247 0.245,0.361c0.04,0.048 0.079,0.092 0.122,0.137c-0.174,0.501 0.025,0.916 0.025,0.916c0.534,0.02 0.885,-0.234 0.959,-0.292c0.053,0.019 0.107,0.035 0.162,0.048c0.165,0.043 0.333,0.068 0.501,0.074c0.041,0.002 0.084,0.004 0.125,0.002l0.059,0l0.027,-0.002l0,0.002c0.252,0.359 0.694,0.41 0.694,0.41c0.314,-0.331 0.332,-0.66 0.332,-0.731l0,-0.03c0.066,-0.046 0.129,-0.096 0.188,-0.15c0.126,-0.114 0.236,-0.244 0.328,-0.384c0.009,-0.013 0.017,-0.026 0.025,-0.04c0.356,0.02 0.608,-0.22 0.608,-0.22c-0.059,-0.371 -0.27,-0.553 -0.315,-0.587c0,0 -0.001,-0.002 -0.005,-0.003c-0.003,-0.002 -0.003,-0.004 -0.003,-0.004c-0.001,-0.001 -0.005,-0.003 -0.008,-0.005c0.002,-0.023 0.003,-0.044 0.005,-0.067c0.003,-0.04 0.003,-0.081 0.003,-0.121l0,-0.052l0,-0.01l-0.001,-0.025l-0.002,-0.033c0,-0.011 -0.002,-0.021 -0.003,-0.031c-0.002,-0.01 -0.002,-0.022 -0.004,-0.032l-0.003,-0.031l-0.005,-0.031c-0.007,-0.041 -0.013,-0.081 -0.023,-0.122c-0.038,-0.16 -0.101,-0.312 -0.181,-0.448c-0.083,-0.137 -0.185,-0.258 -0.302,-0.36c-0.115,-0.102 -0.245,-0.184 -0.381,-0.245c-0.136,-0.061 -0.278,-0.101 -0.42,-0.119c-0.071,-0.01 -0.142,-0.013 -0.213,-0.012l-0.052,0l-0.027,0.002c-0.01,0 -0.019,0.002 -0.028,0.002c-0.036,0.003 -0.072,0.008 -0.107,0.015c-0.142,0.026 -0.275,0.077 -0.392,0.148c-0.117,0.071 -0.219,0.158 -0.302,0.257c-0.082,0.099 -0.146,0.209 -0.191,0.323c-0.044,0.114 -0.069,0.232 -0.076,0.346c-0.001,0.028 -0.001,0.058 -0.001,0.086l0,0.021l0.001,0.023c0.002,0.014 0.002,0.028 0.004,0.042c0.005,0.057 0.016,0.113 0.031,0.166c0.031,0.107 0.081,0.204 0.142,0.287c0.061,0.082 0.135,0.15 0.212,0.204c0.078,0.053 0.162,0.091 0.244,0.116c0.083,0.024 0.165,0.034 0.243,0.034l0.042,0c0.005,0 0.01,0 0.015,-0.001c0.008,0 0.017,-0.002 0.025,-0.002c0.002,0 0.005,0 0.007,-0.002l0.008,-0.001c0.005,0 0.01,-0.002 0.015,-0.002c0.009,-0.002 0.018,-0.003 0.028,-0.005c0.009,-0.002 0.018,-0.003 0.026,-0.007c0.018,-0.003 0.035,-0.009 0.051,-0.014c0.033,-0.012 0.066,-0.025 0.094,-0.04c0.03,-0.015 0.056,-0.033 0.082,-0.049c0.007,-0.005 0.015,-0.01 0.022,-0.017c0.026,-0.021 0.031,-0.061 0.01,-0.087c-0.018,-0.023 -0.051,-0.03 -0.078,-0.015c-0.006,0.003 -0.013,0.007 -0.02,0.01c-0.023,0.011 -0.046,0.021 -0.07,0.029c-0.025,0.009 -0.051,0.015 -0.078,0.02c-0.013,0.002 -0.026,0.004 -0.041,0.005c-0.007,0 -0.013,0.002 -0.021,0.002l-0.04,0c-0.008,0 -0.017,0 -0.025,-0.002c0,0 -0.005,0 -0.001,0l-0.009,0c-0.003,0 -0.008,0 -0.011,-0.001c-0.008,-0.002 -0.015,-0.002 -0.023,-0.004c-0.061,-0.008 -0.122,-0.026 -0.18,-0.052c-0.059,-0.027 -0.115,-0.063 -0.166,-0.109c-0.051,-0.046 -0.096,-0.101 -0.131,-0.163c-0.034,-0.063 -0.059,-0.132 -0.07,-0.205c-0.005,-0.036 -0.009,-0.074 -0.007,-0.11c0,-0.01 0.002,-0.02 0.002,-0.03c0,0.003 0,-0.002 0,-0.002l0,-0.011c0,-0.005 0.001,-0.01 0.001,-0.015c0.002,-0.02 0.005,-0.039 0.009,-0.059c0.028,-0.158 0.107,-0.313 0.229,-0.43c0.031,-0.03 0.064,-0.056 0.098,-0.081c0.035,-0.025 0.073,-0.046 0.113,-0.064c0.039,-0.019 0.079,-0.033 0.122,-0.045c0.041,-0.011 0.084,-0.018 0.128,-0.023c0.022,-0.002 0.043,-0.003 0.066,-0.003l0.045,0c0.004,0 0,0 0.001,0l0.005,0l0.018,0.001c0.048,0.004 0.094,0.01 0.14,0.022c0.093,0.02 0.183,0.054 0.267,0.1c0.168,0.094 0.312,0.239 0.399,0.414c0.045,0.087 0.076,0.181 0.091,0.279c0.003,0.024 0.006,0.049 0.008,0.074l0.003,0.036l0,0.071c0,0.011 -0.001,0.031 -0.001,0.043c-0.002,0.026 -0.005,0.054 -0.009,0.08c-0.003,0.027 -0.008,0.053 -0.013,0.08c-0.005,0.026 -0.011,0.052 -0.018,0.077c-0.013,0.051 -0.03,0.102 -0.049,0.153c-0.04,0.099 -0.093,0.195 -0.155,0.282c-0.127,0.175 -0.3,0.317 -0.498,0.407c-0.099,0.045 -0.203,0.078 -0.31,0.094c-0.053,0.01 -0.107,0.015 -0.161,0.017l-0.076,0c0.006,0 -0.002,0 -0.002,0l-0.005,0c-0.029,0 -0.057,-0.002 -0.087,-0.005c-0.115,-0.009 -0.229,-0.03 -0.341,-0.061c-0.111,-0.032 -0.218,-0.076 -0.32,-0.129c-0.203,-0.109 -0.386,-0.257 -0.527,-0.437c-0.071,-0.089 -0.134,-0.186 -0.185,-0.286c-0.051,-0.101 -0.092,-0.208 -0.122,-0.315c-0.03,-0.109 -0.048,-0.219 -0.056,-0.331l-0.002,-0.022l0,-0.147c0.002,-0.054 0.007,-0.112 0.014,-0.168c0.006,-0.056 0.016,-0.113 0.028,-0.169c0.011,-0.056 0.024,-0.113 0.041,-0.169c0.031,-0.11 0.071,-0.217 0.117,-0.318c0.094,-0.201 0.216,-0.38 0.362,-0.524c0.037,-0.036 0.075,-0.069 0.114,-0.102c0.04,-0.031 0.081,-0.061 0.124,-0.089c0.041,-0.028 0.085,-0.053 0.13,-0.076c0.021,-0.011 0.044,-0.023 0.068,-0.033l0.069,-0.029c0.046,-0.02 0.094,-0.037 0.143,-0.051c0.012,-0.004 0.025,-0.007 0.036,-0.012c0.012,-0.003 0.025,-0.007 0.037,-0.01c0.024,-0.006 0.049,-0.013 0.074,-0.018c0.011,-0.003 0.025,-0.005 0.038,-0.008c0.013,-0.004 0.024,-0.005 0.038,-0.009c0.013,-0.001 0.024,-0.004 0.038,-0.006l0.018,-0.003l0.019,-0.004c0.014,-0.001 0.025,-0.003 0.038,-0.005c0.015,-0.001 0.028,-0.003 0.043,-0.005c0.012,-0.001 0.031,-0.003 0.043,-0.005c0.008,-0.001 0.018,-0.001 0.026,-0.003l0.019,-0.001l0.008,-0.002l0.01,0c0.014,-0.002 0.028,-0.002 0.043,-0.003l0.021,-0.002c0,0 0.008,0 0.002,0l0.014,0c0.012,0 0.025,-0.002 0.037,-0.002c0.047,-0.001 0.097,-0.001 0.145,0c0.095,0.004 0.189,0.015 0.28,0.032c0.183,0.034 0.354,0.092 0.511,0.169c0.156,0.076 0.295,0.17 0.417,0.272c0.008,0.007 0.015,0.013 0.023,0.02c0.006,0.007 0.015,0.013 0.021,0.02c0.015,0.013 0.028,0.026 0.043,0.039c0.015,0.014 0.028,0.027 0.041,0.04c0.014,0.013 0.027,0.026 0.04,0.041c0.051,0.055 0.099,0.109 0.142,0.165c0.085,0.11 0.155,0.222 0.209,0.328l0.02,0.04c0.006,0.013 0.013,0.026 0.018,0.039c0.006,0.013 0.011,0.025 0.018,0.038c0.005,0.013 0.012,0.025 0.016,0.038c0.02,0.049 0.04,0.097 0.055,0.142c0.025,0.072 0.043,0.136 0.058,0.192c0.005,0.024 0.026,0.038 0.049,0.035c0.025,-0.002 0.043,-0.021 0.043,-0.046c0.002,-0.059 0,-0.13 -0.008,-0.211Z" style="fill:#0b0e10;fill-rule:nonzero;"/><path d="M7.865,5.965c0.151,0.337 0.235,0.71 0.235,1.102c0,1.49 -1.21,2.7 -2.7,2.7c-1.49,0 -2.7,-1.21 -2.7,-2.7c0,-1.49 1.21,-2.7 2.7,-2.7c1.067,0 1.991,0.62 2.429,1.52l-0.657,0l-0.378,1.601l-0.409,-1.601l-0.75,0l0.745,2.275l0.777,0l0.708,-2.197Zm-4.153,-0.074l0,2.263l0.669,0l0,-0.715c0,0 0.285,-0.002 0.431,-0.02c0.271,-0.033 0.763,-0.22 0.757,-0.72c-0.006,-0.599 -0.448,-0.814 -0.691,-0.81c-0.665,0.011 -1.166,0.002 -1.166,0.002Zm0.673,1.067c0,0 0.224,-0.013 0.283,-0.033c0.044,-0.014 0.177,-0.072 0.178,-0.263c0.001,-0.175 -0.097,-0.241 -0.186,-0.272c-0.058,-0.021 -0.275,-0.018 -0.275,-0.018l0,0.586Z" style="fill:#0b0e10;"/><path d="M4.543,16.698c0,0.176 -0.144,0.335 -0.335,0.335c-0.192,0 -0.335,-0.144 -0.335,-0.335l0,-1.435c0,-0.176 0.143,-0.335 0.335,-0.335c0.191,0 0.335,0.143 0.335,0.335l0,1.435Zm0.957,0.383c0,0.175 -0.144,0.335 -0.335,0.335c-0.192,0 -0.319,-0.144 -0.319,-0.335l0,-2.185c0,-0.175 0.143,-0.335 0.335,-0.335c0.191,0 0.335,0.144 0.335,0.335l0,2.185l-0.016,0Zm-1.93,-0.702c0,0.176 -0.144,0.335 -0.335,0.335c-0.191,0 -0.335,-0.143 -0.335,-0.335l0,-0.781c0,-0.176 0.144,-0.335 0.335,-0.335c0.191,0 0.335,0.159 0.335,0.335l0,0.781Zm2.887,1.053c0,0.175 -0.144,0.335 -0.335,0.335c-0.176,0 -0.319,-0.16 -0.319,-0.335l0,-2.903c0,-0.175 0.143,-0.335 0.335,-0.335c0.175,0 0.334,0.144 0.334,0.335l0,2.903l-0.015,0Z" style="fill:#0b0e10;fill-rule:nonzero;"/><path d="M7.509,17.288c-0.064,0 -0.112,-0.016 -0.175,-0.032l-0.399,-0.127c-0.064,-0.016 -0.112,-0.096 -0.08,-0.16c0.016,-0.063 0.096,-0.111 0.16,-0.08l0.414,0.128c0.08,0.032 0.176,0.016 0.256,-0.048c0.079,-0.048 0.111,-0.143 0.111,-0.223l0,-2.663c0,-0.128 -0.08,-0.24 -0.191,-0.272l-3.908,-1.18c-0.079,-0.032 -0.175,-0.016 -0.255,0.032c-0.064,0.064 -0.111,0.144 -0.111,0.239l0,1.834c0,0.08 -0.064,0.128 -0.128,0.128c-0.08,0 -0.128,-0.064 -0.128,-0.128l0,-1.834c0,-0.175 0.08,-0.334 0.224,-0.43c0.143,-0.112 0.319,-0.128 0.478,-0.08l3.892,1.18c0.223,0.064 0.382,0.287 0.382,0.527l0,2.663c0,0.175 -0.079,0.335 -0.223,0.446c-0.096,0.032 -0.207,0.08 -0.319,0.08Z" style="fill:#0b0e10;fill-rule:nonzero;"/></g></svg>