<?xml version="1.0" encoding="UTF-8" standalone="no"?>
<!DOCTYPE svg PUBLIC "-//W3C//DTD SVG 1.1//EN" "http://www.w3.org/Graphics/SVG/1.1/DTD/svg11.dtd">
<svg width="100%" height="100%" viewBox="0 0 84 40" version="1.1" xmlns="http://www.w3.org/2000/svg" xmlns:xlink="http://www.w3.org/1999/xlink" xml:space="preserve" xmlns:serif="http://www.serif.com/" style="fill-rule:evenodd;clip-rule:evenodd;stroke-linejoin:round;stroke-miterlimit:2;">
    <g transform="matrix(1.11111,0,0,1.11111,-1.45944,-1.48111)">
        <path d="M35.77,11.989C36.775,14.233 37.333,16.719 37.333,19.333C37.333,29.268 29.268,37.333 19.333,37.333C9.399,37.333 1.333,29.268 1.333,19.333C1.333,9.399 9.399,1.333 19.333,1.333C26.448,1.333 32.605,5.47 35.527,11.47L31.144,11.47L28.624,22.14L25.898,11.47L20.899,11.47L25.863,26.634L31.048,26.634L35.77,11.989ZM49.107,27.195C48.209,27.195 47.395,26.974 46.666,26.531C45.943,26.089 45.38,25.473 44.977,24.686C44.573,23.891 44.371,23.003 44.371,22.02L44.371,21.6C44.371,20.584 44.566,19.669 44.957,18.856C45.354,18.042 45.904,17.404 46.607,16.941C47.311,16.473 48.072,16.238 48.893,16.238C50.175,16.238 51.191,16.678 51.94,17.557C52.695,18.429 53.072,19.624 53.072,21.141L53.072,21.795L45.533,21.795L45.533,22.02C45.533,23.217 45.875,24.217 46.559,25.018C47.249,25.812 48.115,26.209 49.156,26.209C49.781,26.209 50.331,26.095 50.807,25.867C51.288,25.639 51.725,25.275 52.115,24.773L52.848,25.33C51.988,26.574 50.742,27.195 49.107,27.195ZM42.832,27L41.66,27L41.66,16.434L42.832,16.434L42.832,27ZM56.877,24.568L57.053,25.477L57.287,24.52L59.826,16.434L60.822,16.434L63.332,24.451L63.606,25.565L63.83,24.539L65.998,16.434L67.209,16.434L64.133,27L63.137,27L60.422,18.621L60.295,18.045L60.168,18.631L57.502,27L56.506,27L53.44,16.434L54.641,16.434L56.877,24.568ZM8.078,11.497L8.078,26.582L12.541,26.582L12.541,21.815C12.541,21.815 14.439,21.805 15.415,21.685C17.22,21.462 20.498,20.218 20.462,16.88C20.419,12.891 17.472,11.458 15.856,11.484C11.417,11.558 8.078,11.497 8.078,11.497ZM48.893,17.234C48.014,17.234 47.272,17.557 46.666,18.201C46.067,18.846 45.703,19.712 45.572,20.799L51.91,20.799L51.91,20.672C51.878,19.656 51.588,18.829 51.041,18.191C50.494,17.553 49.778,17.234 48.893,17.234ZM12.564,18.606C12.564,18.606 14.063,18.52 14.453,18.389C14.744,18.292 15.632,17.908 15.64,16.639C15.648,15.466 14.991,15.027 14.403,14.82C14.015,14.684 12.564,14.702 12.564,14.702L12.564,18.606ZM70.592,11.446L69.285,11.446L69.285,15L68.406,15L68.406,11.446L67.117,11.446L67.117,10.734L70.592,10.734L70.592,11.446ZM72.744,10.734L73.84,13.828L74.93,10.734L76.084,10.734L76.084,15L75.202,15L75.202,13.834L75.29,11.821L74.139,15L73.535,15L72.387,11.824L72.475,13.834L72.475,15L71.596,15L71.596,10.734L72.744,10.734ZM41.455,13.377C41.455,13.156 41.527,12.97 41.67,12.82C41.813,12.664 42.009,12.586 42.256,12.586C42.503,12.586 42.699,12.664 42.842,12.82C42.992,12.97 43.066,13.156 43.066,13.377C43.066,13.598 42.992,13.784 42.842,13.934C42.699,14.083 42.503,14.158 42.256,14.158C42.009,14.158 41.813,14.083 41.67,13.934C41.527,13.784 41.455,13.598 41.455,13.377Z" style="fill:rgb(82,92,98);"/>
    </g>
</svg>
