<?xml version="1.0" encoding="UTF-8" standalone="no"?><!DOCTYPE svg PUBLIC "-//W3C//DTD SVG 1.1//EN" "http://www.w3.org/Graphics/SVG/1.1/DTD/svg11.dtd"><svg width="100%" height="100%" viewBox="0 0 20 20" version="1.1" xmlns="http://www.w3.org/2000/svg" xmlns:xlink="http://www.w3.org/1999/xlink" xml:space="preserve" xmlns:serif="http://www.serif.com/" style="fill-rule:evenodd;clip-rule:evenodd;stroke-linejoin:round;stroke-miterlimit:2;"><path d="M19.131,5.92c0.559,1.247 0.869,2.627 0.869,4.08c0,5.519 -4.481,10 -10,10c-5.519,0 -10,-4.481 -10,-10c0,-5.519 4.481,-10 10,-10c3.953,0 7.373,2.298 8.996,5.631l-2.435,0l-1.399,5.928l-1.515,-5.928l-2.777,0l2.758,8.425l2.88,0l2.623,-8.136Zm-15.384,-0.273l0,8.38l2.479,0l0,-2.648c0,0 1.055,-0.006 1.597,-0.073c1.003,-0.123 2.824,-0.814 2.804,-2.669c-0.024,-2.216 -1.661,-3.012 -2.559,-2.998c-2.466,0.042 -4.321,0.008 -4.321,0.008Zm2.492,3.949c0,0 0.833,-0.048 1.05,-0.12c0.161,-0.055 0.655,-0.268 0.659,-0.973c0.004,-0.651 -0.361,-0.895 -0.687,-1.01c-0.215,-0.076 -1.022,-0.066 -1.022,-0.066l0,2.169Z" style="fill:#525c62;"/></svg>