<?xml version="1.0" encoding="UTF-8" standalone="no"?>
<!DOCTYPE svg PUBLIC "-//W3C//DTD SVG 1.1//EN" "http://www.w3.org/Graphics/SVG/1.1/DTD/svg11.dtd">
<svg width="100%" height="100%" viewBox="0 0 180 180" version="1.1" xmlns="http://www.w3.org/2000/svg" xmlns:xlink="http://www.w3.org/1999/xlink" xml:space="preserve" xmlns:serif="http://www.serif.com/" style="fill-rule:evenodd;clip-rule:evenodd;stroke-linejoin:round;stroke-miterlimit:2;">
    <g transform="matrix(9,0,0,9,-0.00056744,0)">
        <g id="grafana">
            <path id="symbol--negative" d="M19.173,8.826C19.14,8.49 19.085,8.105 18.974,7.675C18.864,7.251 18.699,6.782 18.456,6.297C18.214,5.813 17.9,5.311 17.492,4.821C17.332,4.628 17.156,4.441 16.969,4.259C17.25,3.141 16.627,2.171 16.627,2.171C15.553,2.105 14.87,2.507 14.616,2.689C14.572,2.672 14.533,2.65 14.489,2.634C14.308,2.562 14.12,2.49 13.922,2.43C13.729,2.369 13.531,2.314 13.327,2.264C13.123,2.215 12.919,2.176 12.71,2.143C12.671,2.138 12.638,2.132 12.6,2.127C12.131,0.628 10.787,0 10.787,0C9.283,0.953 9.002,2.287 9.002,2.287C9.002,2.287 8.996,2.314 8.985,2.364C8.903,2.386 8.82,2.413 8.737,2.435C8.622,2.468 8.506,2.512 8.396,2.556C8.28,2.601 8.17,2.645 8.054,2.694C7.828,2.793 7.602,2.904 7.382,3.025C7.167,3.146 6.958,3.278 6.754,3.416C6.726,3.405 6.699,3.394 6.699,3.394C4.616,2.601 2.77,3.554 2.77,3.554C2.6,5.769 3.602,7.163 3.801,7.416C3.751,7.554 3.707,7.692 3.663,7.829C3.509,8.331 3.393,8.843 3.321,9.377C3.31,9.455 3.299,9.532 3.294,9.609C1.365,10.562 0.798,12.507 0.798,12.507C2.401,14.353 4.275,14.468 4.275,14.468L4.28,14.463C4.517,14.887 4.792,15.289 5.101,15.669C5.233,15.829 5.365,15.978 5.509,16.127C4.925,17.802 5.591,19.19 5.591,19.19C7.376,19.256 8.55,18.408 8.798,18.215C8.974,18.276 9.156,18.331 9.338,18.375C9.889,18.518 10.451,18.601 11.013,18.623C11.151,18.628 11.294,18.634 11.432,18.628L11.63,18.628L11.718,18.623L11.718,18.628C12.561,19.829 14.038,20 14.038,20C15.09,18.893 15.151,17.791 15.151,17.554L15.151,17.455C15.371,17.3 15.58,17.135 15.779,16.953C16.197,16.573 16.567,16.138 16.875,15.669C16.903,15.625 16.93,15.581 16.958,15.537C18.148,15.603 18.991,14.799 18.991,14.799C18.792,13.559 18.087,12.953 17.938,12.838C17.938,12.838 17.933,12.832 17.922,12.826C17.911,12.821 17.911,12.815 17.911,12.815C17.905,12.81 17.894,12.804 17.883,12.799C17.889,12.722 17.894,12.65 17.9,12.573C17.911,12.441 17.911,12.303 17.911,12.171L17.911,11.961L17.905,11.879L17.9,11.769C17.9,11.73 17.894,11.697 17.889,11.664C17.883,11.631 17.883,11.592 17.878,11.559L17.867,11.455L17.85,11.35C17.828,11.212 17.806,11.08 17.773,10.942C17.646,10.408 17.437,9.901 17.167,9.444C16.892,8.986 16.55,8.584 16.159,8.242C15.773,7.901 15.338,7.625 14.886,7.421C14.429,7.218 13.955,7.085 13.481,7.025C13.244,6.992 13.007,6.981 12.77,6.986L12.594,6.986L12.506,6.992C12.473,6.992 12.44,6.997 12.412,6.997C12.291,7.008 12.17,7.025 12.054,7.047C11.58,7.135 11.134,7.306 10.743,7.543C10.352,7.78 10.01,8.072 9.735,8.402C9.459,8.733 9.244,9.102 9.095,9.482C8.947,9.862 8.864,10.259 8.842,10.639C8.837,10.733 8.837,10.832 8.837,10.926L8.837,10.997L8.842,11.074C8.847,11.118 8.847,11.168 8.853,11.212C8.87,11.405 8.908,11.592 8.958,11.769C9.062,12.127 9.228,12.452 9.432,12.727C9.635,13.003 9.883,13.229 10.142,13.41C10.401,13.587 10.682,13.714 10.958,13.796C11.233,13.879 11.509,13.912 11.768,13.912L11.911,13.912C11.927,13.912 11.944,13.912 11.96,13.906C11.988,13.906 12.016,13.901 12.043,13.901C12.049,13.901 12.06,13.901 12.065,13.895L12.093,13.89C12.109,13.89 12.126,13.884 12.142,13.884C12.175,13.879 12.203,13.873 12.236,13.868C12.269,13.862 12.297,13.857 12.324,13.846C12.385,13.835 12.44,13.813 12.495,13.796C12.605,13.758 12.715,13.714 12.809,13.664C12.908,13.614 12.996,13.554 13.084,13.499C13.107,13.482 13.134,13.466 13.156,13.444C13.244,13.372 13.261,13.24 13.189,13.152C13.129,13.074 13.018,13.052 12.93,13.102C12.908,13.113 12.886,13.124 12.864,13.135C12.787,13.174 12.71,13.207 12.627,13.234C12.544,13.262 12.456,13.284 12.368,13.3C12.324,13.306 12.28,13.311 12.23,13.317C12.208,13.317 12.186,13.322 12.159,13.322L12.027,13.322C11.999,13.322 11.972,13.322 11.944,13.317C11.944,13.317 11.927,13.317 11.938,13.317L11.911,13.317C11.9,13.317 11.883,13.317 11.872,13.311C11.845,13.306 11.823,13.306 11.795,13.3C11.591,13.273 11.387,13.212 11.195,13.124C10.996,13.036 10.809,12.915 10.638,12.76C10.467,12.606 10.319,12.424 10.203,12.215C10.087,12.006 10.005,11.774 9.966,11.532C9.949,11.41 9.938,11.284 9.944,11.163C9.944,11.13 9.949,11.096 9.949,11.063C9.949,11.074 9.949,11.058 9.949,11.058L9.949,11.019C9.949,11.003 9.955,10.986 9.955,10.97C9.96,10.904 9.971,10.837 9.983,10.771C10.076,10.242 10.341,9.725 10.748,9.333C10.853,9.234 10.963,9.146 11.079,9.063C11.195,8.981 11.321,8.909 11.454,8.849C11.586,8.788 11.718,8.738 11.861,8.7C11.999,8.661 12.142,8.639 12.291,8.623C12.363,8.617 12.434,8.612 12.511,8.612L12.66,8.612C12.677,8.612 12.66,8.612 12.666,8.612L12.682,8.612L12.743,8.617C12.903,8.628 13.057,8.65 13.211,8.689C13.52,8.755 13.823,8.87 14.104,9.025C14.666,9.339 15.145,9.824 15.437,10.408C15.586,10.7 15.69,11.014 15.74,11.339C15.751,11.422 15.762,11.504 15.768,11.587L15.779,11.708L15.779,11.945C15.779,11.983 15.773,12.05 15.773,12.088C15.768,12.176 15.757,12.27 15.746,12.358C15.735,12.446 15.718,12.534 15.702,12.623C15.685,12.711 15.663,12.799 15.641,12.882C15.597,13.052 15.542,13.223 15.476,13.394C15.343,13.725 15.167,14.044 14.958,14.336C14.533,14.92 13.955,15.394 13.294,15.697C12.963,15.846 12.616,15.956 12.258,16.011C12.082,16.044 11.9,16.061 11.718,16.066L11.465,16.066C11.487,16.066 11.459,16.066 11.459,16.066L11.443,16.066C11.343,16.066 11.25,16.061 11.151,16.05C10.765,16.022 10.385,15.95 10.01,15.846C9.641,15.741 9.283,15.592 8.941,15.416C8.263,15.052 7.652,14.556 7.178,13.956C6.941,13.658 6.732,13.333 6.561,12.997C6.39,12.661 6.253,12.303 6.153,11.945C6.054,11.581 5.994,11.212 5.966,10.837L5.961,10.766L5.961,10.275C5.966,10.094 5.982,9.901 6.005,9.714C6.027,9.526 6.06,9.333 6.098,9.146C6.137,8.959 6.181,8.771 6.236,8.584C6.341,8.215 6.473,7.857 6.627,7.521C6.941,6.848 7.349,6.248 7.839,5.769C7.961,5.647 8.087,5.537 8.219,5.427C8.352,5.322 8.489,5.223 8.633,5.129C8.77,5.036 8.919,4.953 9.068,4.876C9.14,4.837 9.217,4.799 9.294,4.766C9.332,4.749 9.371,4.733 9.41,4.716C9.448,4.7 9.487,4.683 9.525,4.667C9.679,4.601 9.839,4.545 10.005,4.496C10.043,4.485 10.087,4.474 10.126,4.457C10.164,4.446 10.208,4.435 10.247,4.424C10.33,4.402 10.412,4.38 10.495,4.364C10.534,4.353 10.578,4.347 10.622,4.336C10.666,4.325 10.704,4.32 10.748,4.309C10.792,4.303 10.831,4.292 10.875,4.287L10.936,4.275L11.002,4.264C11.046,4.259 11.084,4.253 11.128,4.248C11.178,4.242 11.222,4.237 11.272,4.231C11.31,4.226 11.376,4.22 11.415,4.215C11.443,4.209 11.476,4.209 11.503,4.204L11.564,4.198L11.591,4.193L11.624,4.193C11.674,4.187 11.718,4.187 11.768,4.182L11.839,4.176C11.839,4.176 11.867,4.176 11.845,4.176L11.894,4.176C11.933,4.176 11.977,4.171 12.016,4.171C12.175,4.165 12.341,4.165 12.5,4.171C12.82,4.182 13.134,4.22 13.437,4.275C14.049,4.391 14.622,4.584 15.145,4.843C15.668,5.096 16.131,5.411 16.539,5.752C16.567,5.774 16.589,5.796 16.616,5.818C16.638,5.84 16.666,5.862 16.688,5.884C16.737,5.928 16.781,5.972 16.831,6.017C16.881,6.061 16.925,6.105 16.969,6.149C17.013,6.193 17.057,6.237 17.101,6.287C17.272,6.468 17.432,6.65 17.575,6.837C17.861,7.207 18.093,7.581 18.275,7.934L18.341,8.066C18.363,8.11 18.385,8.154 18.401,8.198C18.423,8.242 18.44,8.281 18.462,8.325C18.478,8.369 18.5,8.408 18.517,8.452C18.583,8.617 18.649,8.777 18.699,8.926C18.781,9.168 18.842,9.383 18.892,9.57C18.908,9.647 18.98,9.697 19.057,9.686C19.14,9.68 19.2,9.614 19.2,9.532C19.206,9.333 19.2,9.096 19.173,8.826Z" style="fill:white;fill-rule:nonzero;"/>
        </g>
    </g>
</svg>
