<?xml version="1.0" encoding="UTF-8" standalone="no"?>
<!DOCTYPE svg PUBLIC "-//W3C//DTD SVG 1.1//EN" "http://www.w3.org/Graphics/SVG/1.1/DTD/svg11.dtd">
<svg width="100%" height="100%" viewBox="0 0 180 180" version="1.1" xmlns="http://www.w3.org/2000/svg" xmlns:xlink="http://www.w3.org/1999/xlink" xml:space="preserve" xmlns:serif="http://www.serif.com/" style="fill-rule:evenodd;clip-rule:evenodd;stroke-linejoin:round;stroke-miterlimit:2;">
    <g transform="matrix(0.64702,0,0,0.64702,7.18144,0)">
        <g id="grafana">
            <path id="symbol--coloured" d="M255.59,122.775C255.13,118.1 254.364,112.736 252.831,106.758C251.298,100.857 248.999,94.342 245.627,87.598C242.255,80.854 237.887,73.88 232.215,67.059C229.993,64.377 227.54,61.771 224.935,59.242C228.843,43.684 220.183,30.196 220.183,30.196C205.238,29.276 195.735,34.871 192.21,37.4C191.597,37.17 191.06,36.863 190.447,36.633C187.918,35.637 185.312,34.641 182.553,33.798C179.871,32.955 177.112,32.188 174.276,31.499C171.441,30.809 168.605,30.272 165.693,29.812C165.156,29.736 164.697,29.659 164.16,29.583C157.646,8.737 138.946,0 138.946,0C118.024,13.258 114.115,31.805 114.115,31.805C114.115,31.805 114.038,32.188 113.885,32.878C112.736,33.185 111.586,33.568 110.436,33.874C108.827,34.334 107.218,34.947 105.685,35.56C104.075,36.173 102.543,36.787 100.933,37.476C97.791,38.856 94.649,40.389 91.583,42.075C88.594,43.761 85.682,45.6 82.846,47.516C82.463,47.363 82.08,47.209 82.08,47.209C53.111,36.173 27.437,49.432 27.437,49.432C25.061,80.241 39.009,99.63 41.768,103.156C41.078,105.072 40.465,106.988 39.852,108.904C37.706,115.878 36.097,123.005 35.101,130.439C34.947,131.512 34.794,132.585 34.717,133.658C7.894,146.916 0,173.97 0,173.97C22.302,199.644 48.359,201.253 48.359,201.253L48.436,201.177C51.731,207.078 55.563,212.672 59.855,217.96C61.694,220.183 63.533,222.252 65.526,224.322C57.402,247.62 66.676,266.933 66.676,266.933C91.507,267.852 107.831,256.05 111.279,253.368C113.732,254.211 116.261,254.977 118.79,255.59C126.454,257.583 134.271,258.732 142.088,259.039C144.004,259.115 145.997,259.192 147.913,259.115L150.672,259.115L151.898,259.039L151.898,259.115C163.624,275.823 184.163,278.199 184.163,278.199C198.801,262.794 199.644,247.466 199.644,244.171L199.644,242.791C202.709,240.646 205.622,238.346 208.381,235.817C214.205,230.529 219.34,224.475 223.632,217.96C224.015,217.347 224.398,216.734 224.781,216.121C241.335,217.041 253.061,205.852 253.061,205.852C250.302,188.608 240.492,180.178 238.423,178.568C238.423,178.568 238.346,178.492 238.193,178.415C238.04,178.338 238.04,178.262 238.04,178.262C237.963,178.185 237.81,178.108 237.657,178.032C237.733,176.959 237.81,175.962 237.887,174.89C238.04,173.05 238.04,171.134 238.04,169.295L238.04,166.842L238.04,166.383L237.963,165.233L237.887,163.7C237.887,163.164 237.81,162.704 237.733,162.244C237.657,161.784 237.657,161.248 237.58,160.788L237.427,159.332L237.197,157.876C236.89,155.96 236.584,154.12 236.124,152.204C234.361,144.771 231.449,137.72 227.694,131.359C223.862,124.998 219.11,119.403 213.669,114.652C208.304,109.9 202.25,106.068 195.965,103.232C189.604,100.397 183.013,98.557 176.422,97.714C173.127,97.255 169.831,97.101 166.536,97.178L164.083,97.178L162.857,97.255C162.397,97.255 161.938,97.331 161.554,97.331C159.868,97.484 158.182,97.714 156.573,98.021C149.982,99.247 143.774,101.623 138.333,104.918C132.892,108.214 128.14,112.276 124.308,116.874C120.476,121.472 117.487,126.607 115.418,131.895C113.349,137.183 112.199,142.701 111.893,147.989C111.816,149.292 111.816,150.672 111.816,151.975L111.816,152.971L111.893,154.044C111.969,154.657 111.969,155.347 112.046,155.96C112.276,158.642 112.812,161.248 113.502,163.7C114.958,168.682 117.257,173.203 120.093,177.035C122.928,180.867 126.377,184.01 129.979,186.539C133.581,188.991 137.49,190.754 141.322,191.903C145.154,193.053 148.986,193.513 152.588,193.513L154.58,193.513C154.81,193.513 155.04,193.513 155.27,193.436C155.653,193.436 156.036,193.359 156.42,193.359C156.496,193.359 156.65,193.359 156.726,193.283L157.109,193.206C157.339,193.206 157.569,193.13 157.799,193.13C158.259,193.053 158.642,192.976 159.102,192.9C159.562,192.823 159.945,192.746 160.328,192.593C161.171,192.44 161.938,192.133 162.704,191.903C164.237,191.367 165.77,190.754 167.072,190.064C168.452,189.374 169.678,188.531 170.904,187.765C171.211,187.535 171.594,187.305 171.901,186.998C173.127,186.002 173.357,184.163 172.36,182.937C171.517,181.864 169.985,181.557 168.758,182.247C168.452,182.4 168.145,182.553 167.839,182.707C166.766,183.243 165.693,183.703 164.543,184.086C163.394,184.469 162.168,184.776 160.941,185.006C160.328,185.082 159.715,185.159 159.025,185.236C158.719,185.236 158.412,185.312 158.029,185.312L156.19,185.312C155.806,185.312 155.423,185.312 155.04,185.236C155.04,185.236 154.81,185.236 154.963,185.236L154.58,185.236C154.427,185.236 154.197,185.236 154.044,185.159C153.661,185.082 153.354,185.082 152.971,185.006C150.135,184.623 147.3,183.78 144.617,182.553C141.858,181.327 139.253,179.641 136.877,177.495C134.501,175.349 132.432,172.82 130.822,169.908C129.213,166.996 128.063,163.777 127.527,160.405C127.297,158.719 127.144,156.956 127.22,155.27C127.22,154.81 127.297,154.35 127.297,153.891C127.297,154.044 127.297,153.814 127.297,153.814L127.297,153.277C127.297,153.048 127.374,152.818 127.374,152.588C127.45,151.668 127.603,150.748 127.757,149.829C129.06,142.471 132.738,135.267 138.41,129.826C139.866,128.446 141.398,127.22 143.008,126.071C144.617,124.921 146.38,123.925 148.219,123.082C150.059,122.239 151.898,121.549 153.891,121.013C155.806,120.476 157.799,120.169 159.868,119.94C160.865,119.863 161.861,119.786 162.934,119.786L165.003,119.786C165.233,119.786 165.003,119.786 165.08,119.786L165.31,119.786L166.153,119.863C168.375,120.016 170.521,120.323 172.667,120.859C176.959,121.779 181.174,123.388 185.082,125.534C192.9,129.903 199.567,136.647 203.629,144.771C205.698,148.832 207.154,153.201 207.844,157.722C207.997,158.872 208.151,160.022 208.227,161.171L208.381,162.857L208.381,166.153C208.381,166.689 208.304,167.609 208.304,168.145C208.227,169.372 208.074,170.674 207.921,171.901C207.768,173.127 207.538,174.353 207.308,175.579C207.078,176.806 206.771,178.032 206.465,179.181C205.852,181.557 205.085,183.933 204.166,186.309C202.326,190.907 199.874,195.352 196.961,199.414C191.06,207.538 183.013,214.129 173.817,218.344C169.218,220.413 164.39,221.946 159.409,222.712C156.956,223.172 154.427,223.402 151.898,223.478L148.373,223.478C148.679,223.478 148.296,223.478 148.296,223.478L148.066,223.478C146.686,223.478 145.384,223.402 144.004,223.249C138.639,222.865 133.351,221.869 128.14,220.413C123.005,218.957 118.024,216.888 113.272,214.435C103.845,209.377 95.339,202.479 88.748,194.126C85.452,189.987 82.54,185.466 80.164,180.791C77.788,176.116 75.872,171.134 74.493,166.153C73.113,161.095 72.27,155.96 71.887,150.748L71.81,149.752L71.81,142.931C71.887,140.402 72.117,137.72 72.424,135.114C72.73,132.508 73.19,129.826 73.726,127.22C74.263,124.615 74.876,122.009 75.642,119.403C77.099,114.268 78.938,109.287 81.084,104.612C85.452,95.262 91.123,86.908 97.944,80.241C99.63,78.555 101.393,77.022 103.232,75.489C105.072,74.033 106.988,72.653 108.98,71.351C110.896,70.048 112.965,68.898 115.035,67.825C116.031,67.289 117.104,66.752 118.177,66.292L121.396,64.913C123.542,63.993 125.764,63.227 128.063,62.537C128.6,62.384 129.213,62.231 129.749,62.001C130.286,61.847 130.899,61.694 131.435,61.541C132.585,61.234 133.735,60.928 134.884,60.698C135.421,60.545 136.034,60.468 136.647,60.315C137.26,60.161 137.796,60.085 138.41,59.931C139.023,59.855 139.559,59.702 140.172,59.625L141.015,59.472L141.935,59.318C142.548,59.242 143.084,59.165 143.698,59.088C144.387,59.012 145,58.935 145.69,58.859C146.227,58.782 147.146,58.705 147.683,58.629C148.066,58.552 148.526,58.552 148.909,58.475L149.752,58.399L150.135,58.322L150.595,58.322C151.285,58.245 151.898,58.245 152.588,58.169L153.584,58.092C153.584,58.092 153.967,58.092 153.661,58.092L154.35,58.092C154.887,58.092 155.5,58.016 156.036,58.016C158.259,57.939 160.558,57.939 162.781,58.016C167.226,58.169 171.594,58.705 175.809,59.472C184.316,61.081 192.287,63.763 199.567,67.365C206.848,70.891 213.286,75.259 218.957,80.011C219.34,80.317 219.647,80.624 220.03,80.93C220.336,81.237 220.719,81.544 221.026,81.85C221.716,82.463 222.329,83.076 223.019,83.689C223.708,84.303 224.322,84.916 224.935,85.529C225.548,86.142 226.161,86.755 226.774,87.445C229.15,89.974 231.372,92.503 233.365,95.109C237.35,100.243 240.569,105.455 243.098,110.36L244.018,112.199C244.324,112.812 244.631,113.425 244.861,114.038C245.167,114.652 245.397,115.188 245.704,115.801C245.934,116.414 246.24,116.951 246.47,117.564C247.39,119.863 248.309,122.085 248.999,124.155C250.149,127.527 250.992,130.516 251.682,133.121C251.911,134.194 252.908,134.884 253.981,134.731C255.13,134.654 255.973,133.735 255.973,132.585C256.05,129.826 255.973,126.531 255.59,122.775Z" style="fill:url(#_Linear1);fill-rule:nonzero;"/>
        </g>
    </g>
    <defs>
        <linearGradient id="_Linear1" x1="0" y1="0" x2="1" y2="0" gradientUnits="userSpaceOnUse" gradientTransform="matrix(1.55547e-14,-254.027,254.027,1.55547e-14,127.987,340.655)"><stop offset="0" style="stop-color:rgb(255,241,0);stop-opacity:1"/><stop offset="1" style="stop-color:rgb(240,90,40);stop-opacity:1"/></linearGradient>
    </defs>
</svg>
