<?xml version="1.0" encoding="UTF-8" standalone="no"?>
<!DOCTYPE svg PUBLIC "-//W3C//DTD SVG 1.1//EN" "http://www.w3.org/Graphics/SVG/1.1/DTD/svg11.dtd">
<svg width="100%" height="100%" viewBox="0 0 20 20" version="1.1" xmlns="http://www.w3.org/2000/svg" xmlns:xlink="http://www.w3.org/1999/xlink" xml:space="preserve" xmlns:serif="http://www.serif.com/" style="fill-rule:evenodd;clip-rule:evenodd;stroke-linejoin:round;stroke-miterlimit:2;">
    <g transform="matrix(0.740741,0,0,0.740741,2.68278,2.96296)">
        <path d="M14.862,21.325C14.862,22.203 14.065,23 13.108,23C12.231,23 11.513,22.203 11.513,21.325L11.513,6.813C11.513,5.935 12.231,5.138 13.188,5.138C14.065,5.138 14.862,5.856 14.862,6.813L14.862,21.325ZM10.078,19.571C10.078,20.448 9.28,21.246 8.323,21.246C7.366,21.246 6.728,20.528 6.728,19.571L6.728,8.647C6.728,7.769 7.446,6.972 8.403,6.972C9.36,6.972 10.078,7.69 10.078,8.647L10.078,19.571ZM20.045,20.608C19.726,20.608 19.487,20.528 19.168,20.448L17.175,19.81C16.856,19.731 16.616,19.332 16.776,19.013C16.856,18.694 17.254,18.455 17.573,18.614L19.647,19.252C20.045,19.412 20.524,19.332 20.922,19.013C21.321,18.774 21.481,18.295 21.481,17.897L21.481,4.58C21.481,3.942 21.082,3.384 20.524,3.224L0.987,-2.677C0.588,-2.836 0.11,-2.756 -0.289,-2.517C-0.608,-2.198 -0.847,-1.8 -0.847,-1.321L-0.847,7.849C-0.847,8.248 -1.166,8.487 -1.485,8.487C-1.884,8.487 -2.123,8.168 -2.123,7.849L-2.123,-1.321C-2.123,-2.198 -1.724,-2.996 -1.006,-3.474C-0.289,-4.032 0.588,-4.112 1.386,-3.873L20.843,2.028C21.959,2.347 22.757,3.463 22.757,4.659L22.757,17.976C22.757,18.853 22.358,19.651 21.64,20.209C21.162,20.369 20.603,20.608 20.045,20.608ZM5.213,17.657C5.213,18.535 4.496,19.332 3.539,19.332C2.582,19.332 1.864,18.614 1.864,17.657L1.864,10.481C1.864,9.603 2.582,8.806 3.539,8.806C4.496,8.806 5.213,9.524 5.213,10.481L5.213,17.657ZM0.349,16.063C0.349,16.94 -0.369,17.737 -1.325,17.737C-2.282,17.737 -3,17.019 -3,16.063L-3,12.155C-3,11.278 -2.282,10.481 -1.325,10.481C-0.369,10.481 0.349,11.278 0.349,12.155L0.349,16.063Z" style="fill:#525c62;fill-rule:nonzero;"/>
    </g>
</svg>
